<svg width="32" height="74" viewBox="0 0 32 74" fill="none" xmlns="http://www.w3.org/2000/svg">
<g clip-path="url(#clip0_242_991)">
<path d="M1.80925e-07 61.539L0 62.9187L32 62.9187L32 61.539L1.80925e-07 61.539Z" fill="white"/>
<path d="M1.80925e-07 72.6203L0 74L32 74L32 72.6203L1.80925e-07 72.6203Z" fill="white"/>
<path d="M3.69088e-07 65.485L0 68.2996L32 68.2996L32 65.485L3.69088e-07 65.485Z" fill="white"/>
<path d="M3.01542e-07 57.6299L0 59.9294L32 59.9294L32 57.63L3.01542e-07 57.6299Z" fill="white"/>
<path d="M1.80925e-07 54.8705L0 56.2502L32 56.2502L32 54.8706L1.80925e-07 54.8705Z" fill="white"/>
<path d="M1.80925e-07 51.8812L0 53.2609L32 53.2609L32 51.8812L1.80925e-07 51.8812Z" fill="white"/>
<path d="M1.80925e-07 31.7468L0 33.1265L32 33.1265L32 31.7468L1.80925e-07 31.7468Z" fill="white"/>
<path d="M1.80925e-07 28.7575L0 30.1372L32 30.1372L32 28.7575L1.80925e-07 28.7575Z" fill="white"/>
<path d="M1.80925e-07 38.8959L0 40.2756L32 40.2756L32 38.8959L1.80925e-07 38.8959Z" fill="white"/>
<path d="M3.61851e-07 47.5121L0 50.2715L32 50.2715L32 47.5121L3.61851e-07 47.5121Z" fill="white"/>
<path d="M3.61851e-07 19.5274L0 22.2867L32 22.2867L32 19.5274L3.61851e-07 19.5274Z" fill="white"/>
<path d="M3.61851e-07 34.2302L0 36.9896L32 36.9896L32 34.2302L3.61851e-07 34.2302Z" fill="white"/>
<path d="M3.61851e-07 15.1582L0 17.9176L32 17.9176L32 15.1582L3.61851e-07 15.1582Z" fill="white"/>
<path d="M7.82803e-07 -1.90735e-06L0 5.96948L32 5.96949L32 2.28894e-06L7.82803e-07 -1.90735e-06Z" fill="white"/>
<path d="M6.03084e-08 45.4426L0 45.9025L32 45.9025L32 45.4426L6.03084e-08 45.4426Z" fill="white"/>
<path d="M6.03084e-08 69.7459L0 70.2058L32 70.2058L32 69.7459L6.03084e-08 69.7459Z" fill="white"/>
<path d="M6.03084e-08 13.0887L0 13.5486L32 13.5486L32 13.0887L6.03084e-08 13.0887Z" fill="white"/>
<path d="M6.03084e-08 43.81L0 44.2699L32 44.2699L32 43.81L6.03084e-08 43.81Z" fill="white"/>
<path d="M6.03084e-08 42.1796L0 42.6395L32 42.6395L32 42.1796L6.03084e-08 42.1796Z" fill="white"/>
<path d="M1.80925e-07 23.8963L0 25.276L32 25.276L32 23.8963L1.80925e-07 23.8963Z" fill="white"/>
<path d="M1.80925e-07 8.22528L0 9.60498L32 9.60498L32 8.22529L1.80925e-07 8.22528Z" fill="white"/>
<path d="M6.03084e-08 27.18L0 27.6399L32 27.6399L32 27.18L6.03084e-08 27.18Z" fill="white"/>
</g>
<defs>
<clipPath id="clip0_242_991">
<rect width="74" height="32" fill="white" transform="translate(0 74) rotate(-90)"/>
</clipPath>
</defs>
</svg>
