<?xml version="1.0" encoding="UTF-8"?>
<svg id="Layer_1" data-name="Layer 1" xmlns="http://www.w3.org/2000/svg" width="50" height="50" viewBox="0 0 50 50">
  <defs>
    <style>
      .cls-1 {
        fill: none;
        stroke: #ffb70b;
        stroke-linejoin: round;
        stroke-width: .5px;
        opacity:0.08;
      }
    </style>
  </defs>
  <path class="cls-1" d="M25,7.01c4.81,0,9.32,1.87,12.72,5.27,3.4,3.4,5.27,7.91,5.27,12.72s-1.87,9.32-5.27,12.72-7.91,5.27-12.72,5.27-9.32-1.87-12.72-5.27c-3.4-3.4-5.27-7.91-5.27-12.72s1.87-9.32,5.27-12.72,7.91-5.27,12.72-5.27M25,3.99C13.4,3.99,3.99,13.39,3.99,25s9.4,21.01,21.01,21.01,21.01-9.4,21.01-21.01S36.61,3.99,25,3.99h0Z"/>
  <path class="cls-1" d="M31.57,24.07c1.88-.93,2.28-3.48,1.37-5.23-.89-1.71-3.26-2.14-4.99-2.37v-3.58l-.12-.12h-2.2v3.62h-1.77v-3.62h-2.2l-.12.12v3.58h-4.46v2.46h1.81c.39,0,.95.4,1.04.81v10.39c-.2.95-1.77.47-2.46.59l-.38,2.77h4.46v3.7h2.31v-3.7h1.77v3.7h2.31v-3.7c3.51-.18,6.76-1.24,6.76-5.36,0-2.24-1.07-3.43-3.13-4.08h-.01ZM23.95,19.1c1.67,0,5.22-.23,5.16,2.27-.05,2.37-3.53,2.19-5.16,2.2v-4.47ZM23.95,30.73v-4.85c1.81-.03,6.25-.31,6.24,2.43-.01,2.65-4.5,2.48-6.24,2.43Z"/>
</svg>