<svg width="24" height="31" viewBox="0 0 24 31" fill="none" xmlns="http://www.w3.org/2000/svg">
<path d="M11.0788 2.94863L11.0359 6.51815L12.7771 6.53916L12.82 2.96964L14.9794 2.99635L15.093 3.11284L15.0508 6.64544C16.7551 6.88616 19.075 7.33559 19.9304 9.03757C20.8068 10.7715 20.3823 13.2705 18.5206 14.168C20.5434 14.8414 21.5827 16.0237 21.5597 18.2337C21.5157 22.2812 18.3111 23.2966 14.8544 23.4278L14.81 27.0712L12.5401 27.0421L12.5845 23.3987L10.8433 23.3777L10.7989 27.0211L8.52896 26.992L8.5734 23.3486L4.1809 23.2937L4.59042 20.5684C5.27206 20.4635 6.81205 20.9484 7.01389 20.0251L7.13002 9.78332C7.05487 9.37329 6.50587 8.97483 6.12448 8.96991L4.34645 8.94812L4.37396 6.51664L8.76646 6.57164L8.80766 3.03467L8.92376 2.92093L11.0832 2.94764L11.0788 2.94863ZM11.0285 13.5796C12.6301 13.5911 16.0482 13.8131 16.13 11.4795C16.2179 9.01126 12.7257 9.18737 11.0819 9.17171L11.0319 13.5742L11.0285 13.5796ZM10.9485 20.6438C12.6648 20.7164 17.0723 20.9379 17.1143 18.3286C17.1547 15.6323 12.7828 15.8483 11.0073 15.858L10.9528 20.6428L10.9485 20.6438Z" fill="white" fill-opacity="1"/>
</svg>
