<?xml version="1.0" encoding="UTF-8"?>
<svg id="Layer_1" data-name="Layer 1" xmlns="http://www.w3.org/2000/svg" width="240.4" height="228.9" viewBox="0 0 240.4 228.9">
  <defs>
    <style>
      .cls-1 {
        fill: #fff;
      }

      .cls-2 {
        fill: #1f1f1f;
      }

      .cls-3 {
        fill: #f7931a;
      }
    </style>
  </defs>
  <rect class="cls-2" width="240.4" height="228.9" rx="41.72" ry="41.72"/>
  <g>
    <path class="cls-1" d="M173.98,167.26c-6.84,0-12.87-1.33-18.11-4-5.24-2.67-9.64-6.22-13.2-10.67-3.56-4.44-6.23-9.45-8-15.02-1.78-5.57-2.67-11.25-2.67-17.06v-41.98c0-1.87.16-3.63.49-5.27.33-1.64,1.24-2.97,2.74-4,1.5-1.03,3.98-1.54,7.44-1.54s6.08.52,7.58,1.54c1.5,1.03,2.41,2.36,2.74,4,.33,1.64.49,3.44.49,5.4v41.84c0,4.12.68,8.1,2.03,11.93,1.36,3.84,3.58,7.02,6.67,9.55,3.09,2.53,7.16,3.79,12.22,3.79,4.31,0,8-1.05,11.09-3.16,3.09-2.11,5.48-5.05,7.16-8.85,1.69-3.79,2.53-8.26,2.53-13.41v-42.54c0-1.78.19-3.42.56-4.91.37-1.5,1.31-2.74,2.81-3.72,1.5-.98,3.93-1.47,7.3-1.47,3.56,0,6.06.54,7.51,1.62,1.45,1.08,2.34,2.43,2.67,4.07.33,1.64.49,3.39.49,5.26v42.12c0,5.9-.91,11.61-2.74,17.13-1.82,5.52-4.56,10.48-8.21,14.88-3.65,4.4-8.1,7.91-13.34,10.53-5.24,2.62-11.33,3.93-18.25,3.93Z"/>
    <path class="cls-3" d="M116.91,143.6c2.66-11.12-.81-18.89-11.25-25.21l-.61-.37.7-.16c4.53-1.04,8.3-3.85,10.93-8.12,3.13-5.1,4.14-11.59,2.71-17.36-2.37-9.53-13.04-14.75-23.16-18.59l-.24-.09,4.57-19.04-.34-.55-11.18-2.68-4.59,19.11-9.91-2.38,4.59-19.11-11.18-2.68-.55.34-4.58,19.07-23.56-5.66-2.99,12.44,9.26,2.22c2.13.51,4.75,3.39,4.65,5.9l-13.17,54.89c-1.71,3.66-6.35,2.26-10.08,1.14-1.38-.42-2.7-.81-3.72-.92l-5.35,13.63,23.52,5.65-4.68,19.51,11.62,2.79,4.68-19.51,9.91,2.38-4.68,19.51,11.62,2.79,4.68-19.5.27.05c24.45,4.59,37.82-1.6,42.1-19.48ZM71.67,81.92l.28.07c.6.14,1.25.29,1.94.45,7.13,1.62,17.88,4.07,21.69,10.36,1.42,2.36,1.74,5.08.94,8.09-2.83,10.69-16.52,8.49-25.69,6.37-1.01-.23-1.95-.46-2.83-.68-.65-.16-1.27-.31-1.84-.44l-.28-.07,5.8-24.14ZM88.6,145.45c-6.17,3.64-16.52,2.14-24.42.31-2.56-.59-4.86-1.22-6.69-1.71l-.69-.19,6.28-26.16.28.06c.57.13,1.18.26,1.84.4,8.33,1.79,22.28,4.79,27.01,12.34,1.55,2.48,1.97,5.28,1.23,8.32-.71,2.92-2.34,5.15-4.84,6.62Z"/>
  </g>
</svg>