<svg
          xmlns="http://www.w3.org/2000/svg"
          width="40"
          height="40"
          viewBox="0 0 40 40"
          fill="none"
        >
          <g>
            <path
              d="M33.6 0H6.4C2.86538 0 0 2.86538 0 6.4V33.6C0 37.1346 2.86538 40 6.4 40H33.6C37.1346 40 40 37.1346 40 33.6V6.4C40 2.86538 37.1346 0 33.6 0Z"
              fill="#1F1F1F"
            />
            <path
              d="M22.064 34.4477V21.5437H17.624V16.5517H22.064V11.4877C22.064 10.7597 22.528 9.75173 22.832 9.20773C24.784 5.77573 28.832 6.15973 32.184 6.42373V10.8637H28.504C27.44 10.8637 27.048 11.5357 27.048 12.5997V16.5517H32.04L31.344 21.5437H27.04V34.4477H22.048H22.064Z"
              fill="white"
            />
          </g>
          <defs>
            <clipPath id="clip0_523_2154">
              <rect width="40" height="40" fill="white" />
            </clipPath>
          </defs>
        </svg>