<svg
          xmlns="http://www.w3.org/2000/svg"
          width="40"
          height="40"
          viewBox="0 0 40 40"
          fill="none"
        >
          <g>
            <path
              d="M33.6 0H6.4C2.86538 0 0 2.86538 0 6.4V33.6C0 37.1346 2.86538 40 6.4 40H33.6C37.1346 40 40 37.1346 40 33.6V6.4C40 2.86538 37.1346 0 33.6 0Z"
              fill="#1F1F1F"
            />
            <path
              d="M32.072 7.30374C30.048 5.47974 27.608 5.27974 24.632 5.20774C22.824 5.15974 21.048 5.13574 19.328 5.13574C18.056 5.13574 16.816 5.15174 15.608 5.17574C12.208 5.23974 9.216 5.51974 7.032 8.24774C5.2 10.5277 5.176 13.3837 5.152 16.1437V16.9277C5.12 19.0077 5.12 21.0957 5.144 23.1277V23.8797C5.184 26.9677 5.208 29.8797 7.376 32.2157C9.768 34.7917 12.944 34.8477 16.304 34.9037H16.544C17.76 34.9277 18.992 34.9197 20.184 34.9117C21.248 34.9037 22.352 34.8957 23.44 34.9037C23.52 34.8717 23.6 34.8797 23.64 34.8797H23.808C26.752 34.8397 29.8 34.8077 32.072 32.7437C34.776 30.3037 34.808 27.3117 34.84 23.8477C34.84 23.7917 34.832 23.7037 34.872 23.6237V16.3517C34.824 12.9517 34.768 9.73574 32.072 7.30374ZM32.512 25.0077V25.1357C32.44 27.0877 32.368 29.0957 30.904 30.6557C29.208 32.4637 26.872 32.5037 24.616 32.5357H24.096C22.752 32.5757 21.392 32.5917 20.024 32.5917C18.656 32.5917 17.288 32.5757 15.92 32.5437H15.4C13.384 32.5037 11.104 32.4717 9.488 31.0317C7.592 29.3437 7.536 27.0317 7.488 24.7997V24.4557C7.408 21.5197 7.408 18.5357 7.48 15.5917V15.2957C7.536 12.9437 7.592 10.5197 9.696 8.84774C11.32 7.55174 13.776 7.51974 15.744 7.49574H16.216C18.528 7.43974 21.056 7.44774 23.928 7.50374L24.512 7.51974C26.384 7.54374 28.504 7.56774 30.088 8.68774C32.488 10.3917 32.512 13.1357 32.528 15.7917C32.528 16.0557 32.536 16.3117 32.536 16.5757C32.576 19.0877 32.608 22.0557 32.512 25.0077Z"
              fill="white"
            />
            <path
              d="M26.544 16.2962C25.144 13.8482 22.648 12.4322 19.84 12.4962C17.144 12.5602 14.744 14.0002 13.424 16.3442C12.112 18.6802 12.12 21.4562 13.456 23.7842C14.784 26.1042 17.184 27.5122 19.864 27.5602C22.568 27.6162 25.008 26.2722 26.424 23.9842C27.896 21.6082 27.944 18.7362 26.544 16.2962ZM24.52 22.6642C23.608 24.2402 21.968 25.2002 20.12 25.2402H20.008C18.2 25.2402 16.56 24.3522 15.592 22.8402C14.6 21.2722 14.504 19.3362 15.344 17.6722C16.184 16.0162 17.768 14.9442 19.6 14.8162C19.72 14.8162 19.848 14.8162 19.968 14.8162C21.816 14.8162 23.456 15.7122 24.432 17.2802C25.472 18.9442 25.504 20.9602 24.52 22.6722V22.6642Z"
              fill="white"
            />
            <path
              d="M28.472 13.5435C27.84 13.7035 27.272 13.5515 26.896 13.1275C26.48 12.6475 26.344 11.8955 26.584 11.3035C26.792 10.7755 27.24 10.4475 27.864 10.3835C28.888 10.2795 29.488 10.9675 29.616 11.7035C29.744 12.4155 29.44 13.2955 28.472 13.5435Z"
              fill="white"
            />
          </g>
          <defs>
            <clipPath id="clip0_523_2170">
              <rect width="40" height="40" fill="white" />
            </clipPath>
          </defs>
        </svg>