<?xml version="1.0" encoding="UTF-8"?>
<svg id="Layer_2" data-name="Layer 2" xmlns="http://www.w3.org/2000/svg" width="516.61" height="526.63" viewBox="0 0 516.61 526.63">
  <defs>
    <style>
      .cls-1 {
        fill: #ffae0b;
      }

      .cls-2 {
        fill: #c94444;
      }

      .cls-3 {
        fill: #eda20a;
      }

      .cls-4 {
        fill: #141414;
      }

      .cls-5, .cls-6 {
        fill: #fff;
      }

      .cls-7 {
        opacity: .8;
      }

      .cls-8 {
        opacity: .2;
      }

      .cls-9 {
        fill: #1f1f1f;
      }

      .cls-10 {
        fill: #ffcd32;
      }

      .cls-6 {
        stroke: #1f1f1f;
        stroke-linejoin: round;
        stroke-width: 5px;
      }
    </style>
  </defs>
  <g id="Layer_1-2" data-name="Layer 1">
    <g>
      <path class="cls-6" d="M3.07,214.71c3.8-.64,12.47-1.65,15.47,1.4,11.48,11.67,12.13,19.59,9.05,34.21"/>
      <g>
        <ellipse class="cls-4" cx="327.16" cy="494.55" rx="189.45" ry="32.08"/>
        <g>
          <g>
            <g>
              <g>
                <rect class="cls-5" x="196.4" y="341.33" width="25.04" height="99.64" transform="translate(22.69 -11.3) rotate(3.28)"/>
                <path class="cls-9" d="M221.39,444.77l-30.99-1.77,6.04-105.47,30.99,1.78-6.04,105.47ZM196.74,437.35l19.01,1.09,5.35-93.49-19.01-1.09-5.35,93.49Z"/>
              </g>
              <g>
                <path class="cls-5" d="M218.57,441.6c16.12,0,16.12,19.51,16.12,19.51v24.18c0,3-2.35,5.47-5.34,5.63l-70.21,3.61c-6.39.33-11.76-4.77-11.76-11.17v-3.61c0-10.37,5.46-19.97,14.37-25.27l.51-.3c7.33-4.36,16.55-3.92,23.43,1.12l7.92,5.81-11.69-8.57c-2.07-1.52-2.83-4.26-1.84-6.64l.48-1.15c1.37-3.26,4.68-5.27,8.2-4.98l4.81.4,25,1.43Z"/>
                <path class="cls-9" d="M158.54,497.55c-3.64,0-7.08-1.37-9.75-3.9-2.85-2.7-4.42-6.36-4.42-10.28v-3.61c0-11.37,6.07-22.04,15.83-27.85l.51-.3c4.9-2.92,10.52-3.95,15.92-3.16-.05-1.23.16-2.49.66-3.7l.48-1.15c1.88-4.48,6.37-7.21,11.22-6.81l4.81.4,24.84,1.42c15.05.06,19.03,14.74,19.03,22.51v24.18c0,4.6-3.6,8.39-8.19,8.62l-70.21,3.61c-.25.01-.5.02-.75.02ZM173.12,454.19c-3.22,0-6.44.85-9.33,2.57l-.51.3c-7.96,4.74-12.9,13.43-12.9,22.69v3.61c0,2.27.9,4.37,2.55,5.93,1.64,1.56,3.8,2.35,6.06,2.24l70.21-3.61c1.4-.07,2.5-1.23,2.5-2.63v-24.18c0-.67-.22-16.51-13.12-16.51-.06,0-.11,0-.17,0l-25-1.43-4.89-.4c-2.25-.2-4.32,1.08-5.19,3.15l-.48,1.15c-.46,1.1-.11,2.36.85,3.06l11.69,8.57c1.34.98,1.62,2.86.64,4.19-.98,1.34-2.86,1.63-4.19.64l-7.92-5.81c-3.2-2.35-6.99-3.54-10.79-3.54Z"/>
              </g>
              <g class="cls-8">
                <path d="M231.28,477.16v8.14c0,1.18-.93,2.15-2.11,2.22l-70.2,3.62c-2.15.1-4.2-.65-5.75-2.13-1.57-1.49-2.42-3.49-2.42-5.64v-3.27l80.49-2.93Z"/>
              </g>
            </g>
            <g>
              <g>
                <rect class="cls-5" x="321.29" y="341.33" width="25.04" height="99.64" transform="translate(689.43 762.58) rotate(176.72)"/>
                <path class="cls-9" d="M321.34,444.77l-6.04-105.47,30.99-1.78,6.04,105.47-30.99,1.77ZM321.63,344.95l5.35,93.49,19.01-1.09-5.35-93.49-19.01,1.09Z"/>
              </g>
              <g>
                <path class="cls-5" d="M324.16,441.6c-16.12,0-16.12,19.51-16.12,19.51v24.18c0,3,2.35,5.47,5.34,5.63l70.21,3.61c6.39.33,11.76-4.77,11.76-11.17v-3.61c0-10.37-5.46-19.97-14.37-25.27l-.51-.3c-7.33-4.36-16.55-3.92-23.43,1.12l-7.92,5.81,11.69-8.57c2.07-1.52,2.83-4.26,1.84-6.64l-.48-1.15c-1.37-3.26-4.68-5.27-8.2-4.98l-4.81.4-25,1.43Z"/>
                <path class="cls-9" d="M384.19,497.55c-.25,0-.5,0-.75-.02l-70.21-3.61c-4.59-.24-8.19-4.02-8.19-8.62v-24.18c0-7.77,3.98-22.46,19.03-22.51l24.91-1.43,4.74-.39c4.84-.39,9.34,2.34,11.22,6.81l.48,1.15c.5,1.2.72,2.46.66,3.7,5.4-.79,11.02.25,15.92,3.16l.51.3c9.77,5.81,15.83,16.48,15.83,27.85v3.61c0,3.93-1.57,7.58-4.42,10.28-2.66,2.53-6.1,3.9-9.74,3.9ZM354.65,442.75c-.14,0-.29,0-.43.02l-4.81.4-25.07,1.44c-.06,0-.11,0-.17,0-12.9,0-13.12,15.84-13.12,16.52v24.18c0,1.4,1.1,2.56,2.5,2.63l70.21,3.61c2.27.11,4.41-.68,6.06-2.24,1.64-1.56,2.55-3.67,2.55-5.93v-3.61c0-9.26-4.94-17.96-12.9-22.69l-.51-.3c-6.31-3.75-14.21-3.37-20.12.96l-7.92,5.81c-1.34.98-3.21.69-4.19-.64s-.69-3.21.64-4.19l11.69-8.57c.96-.7,1.31-1.96.85-3.06l-.48-1.15c-.81-1.93-2.69-3.17-4.76-3.17Z"/>
              </g>
              <g class="cls-8">
                <path d="M311.44,477.16v8.14c0,1.18.93,2.15,2.11,2.22l70.2,3.62c2.15.1,4.2-.65,5.75-2.13,1.57-1.49,2.42-3.49,2.42-5.64v-3.27s-80.49-2.93-80.49-2.93Z"/>
              </g>
            </g>
          </g>
          <g>
            <g>
              <g>
                <path class="cls-5" d="M138.8,185.48l-49.4,8c-7.88,1.32-15.66,3.18-23.29,5.57l-25.38,7.96,9.1,27.32,26.5-8.31c6.88-2.16,13.9-3.83,21.01-5.02l18.63-3.11,9.08-.78,13.75-2.39"/>
                <path class="cls-9" d="M49.84,237.32c-1.26,0-2.43-.8-2.84-2.05l-9.1-27.32c-.25-.76-.19-1.6.17-2.31.37-.72,1-1.26,1.77-1.5l25.38-7.96c7.73-2.42,15.7-4.33,23.69-5.66l52.38-8.48.96,5.92-52.36,8.48c-7.71,1.29-15.41,3.13-22.87,5.47l-22.46,7.04,7.21,21.63,23.69-7.43c6.98-2.19,14.18-3.91,21.41-5.12l18.63-3.11c.08-.01.16-.02.24-.03l8.95-.77,16.57-2.89,1.03,5.91-16.7,2.91c-.08.02-.17.03-.26.03l-8.96.77-18.51,3.09c-6.95,1.16-13.88,2.82-20.6,4.92l-26.5,8.31c-.3.09-.6.14-.9.14Z"/>
              </g>
              <g>
                <g>
                  <path class="cls-5" d="M49.25,233.05l-9.65-28.65c-1.19-3.54.39-7.42,3.73-9.13l7.96-4.08,11.44,5.34c2.6,1.22,4.55,3.5,5.32,6.25l5.09,18.19-4.15,10.52c-1.61,4.09-5.6,6.77-10.02,6.74l-2.53-.02c-3.26-.02-6.14-2.1-7.17-5.17Z"/>
                  <path class="cls-9" d="M59.03,241.23h-.09l-2.53-.02c-4.54-.03-8.55-2.93-10-7.21h0l-9.65-28.66c-1.68-4.98.51-10.35,5.2-12.76l7.96-4.08c.82-.42,1.8-.44,2.64-.05l11.44,5.34c3.4,1.59,5.93,4.56,6.94,8.17l5.09,18.19c.18.63.14,1.3-.1,1.91l-4.15,10.52c-2.04,5.18-7.16,8.64-12.74,8.64ZM52.1,232.09c.63,1.86,2.37,3.11,4.35,3.12l2.53.02h.05c3.14,0,6.02-1.94,7.16-4.85l3.78-9.58-4.82-17.22c-.54-1.92-1.88-3.5-3.7-4.34l-10.11-4.72-6.65,3.41c-2.03,1.04-2.98,3.36-2.25,5.5l9.65,28.66Z"/>
                </g>
                <g>
                  <path class="cls-5" d="M26.07,203.59s-5.1-6.65-6.61-9.6c-4.12-8.04-3.37-11.29-3.37-11.29,1.65-3.73,6.91-5.81,11.5-4.51,0,0,4.82,2.72,5.82,4.32,7.32,11.67,8.29,13.33,13.8,22.68h0c5.11,8.68,6.37,18.43,3.48,27.06l-1.7,5.06c-1.86,5.56-6.52,9.76-12.68,11.44l-4.68,1.28c-4.99.82-7.71.34-14.21-4.45-4.69-3.45-10.86-11.45-12.61-19.58-.98-4.55-5.03-14.9,3.49-17.58l17.78-4.82Z"/>
                  <path class="cls-9" d="M28.29,253.33c-4.13,0-7.44-1.5-12.65-5.35-5.41-3.99-11.88-12.61-13.76-21.36-.12-.55-.29-1.19-.47-1.89-1.35-5.19-4.15-15.99,5.99-19.19.04-.01.08-.02.12-.03l13.53-3.66c-1.56-2.16-3.38-4.79-4.25-6.49-4.29-8.37-3.85-12.33-3.62-13.34.04-.18.1-.37.18-.54,2.27-5.12,9.02-7.89,15.06-6.18.23.07.45.16.66.27,1.65.93,5.61,3.32,6.88,5.34,7.24,11.54,8.34,13.41,13.61,22.37l.23.39c5.52,9.38,6.88,20.14,3.74,29.53l-1.7,5.06c-2.19,6.55-7.56,11.42-14.74,13.38l-4.68,1.28c-.1.03-.2.05-.3.07-1.39.23-2.64.35-3.83.35ZM9.14,211.28c-3.92,1.27-3.73,5.03-1.93,11.94.21.79.39,1.51.53,2.13,1.5,6.96,7,14.51,11.46,17.79,5.91,4.35,7.87,4.56,11.79,3.93l4.53-1.24c5.21-1.42,9.08-4.88,10.63-9.5l1.7-5.06c2.59-7.74,1.42-16.7-3.22-24.58l-.23-.39c-5.24-8.9-6.33-10.75-13.53-22.22-.39-.51-2.45-1.97-4.42-3.11-3.09-.72-6.26.65-7.41,2.53.02.89.35,3.75,3.09,9.1,1.14,2.22,4.95,7.35,6.32,9.14.61.79.78,1.84.46,2.79s-1.09,1.67-2.06,1.93l-17.71,4.8Z"/>
                </g>
              </g>
            </g>
            <g>
              <path class="cls-3" d="M263.59,348.22h14.87c95.61,0,167.11-76.61,167.11-171.11S374.07,6,278.46,6h-16.57"/>
              <path class="cls-9" d="M278.46,351.22h-14.87v-6h14.87c45.05,0,86.69-17.47,117.25-49.2,30.22-31.37,46.86-73.6,46.86-118.91s-16.64-87.54-46.86-118.91c-30.56-31.73-72.2-49.2-117.25-49.2h-16.57V3h16.57c46.69,0,89.87,18.12,121.57,51.04,31.3,32.5,48.54,76.21,48.54,123.08s-17.24,90.58-48.54,123.07c-31.7,32.91-74.88,51.04-121.57,51.04Z"/>
            </g>
            <g>
              <rect class="cls-9" x="339.72" y="12.51" width="5" height="19.42" transform="translate(304.48 363.07) rotate(-87.4)"/>
              <rect class="cls-9" x="368.92" y="30.45" width="5" height="23.63" transform="translate(317 412.09) rotate(-88.12)"/>
              <rect class="cls-9" x="393.23" y="55.2" width="5" height="25.03" transform="translate(315.09 461.01) rotate(-88.12)"/>
              <rect class="cls-9" x="413.11" y="88.16" width="5" height="26.76" transform="translate(310.68 516.3) rotate(-89.53)"/>
              <rect class="cls-9" x="425.28" y="125.51" width="5" height="27.75" transform="translate(284.91 566.02) rotate(-89.53)"/>
              <rect class="cls-9" x="331.06" y="329.4" width="20.87" height="5" transform="translate(-10.71 11.38) rotate(-1.88)"/>
              <rect class="cls-9" x="359.6" y="309.46" width="23.63" height="5" transform="translate(-10.03 12.35) rotate(-1.88)"/>
              <rect class="cls-9" x="382.16" y="284.03" width="26.09" height="5" transform="translate(-9.19 13.12) rotate(-1.88)"/>
              <rect class="cls-9" x="401.94" y="250.19" width="27.04" height="5" transform="translate(-2.06 3.42) rotate(-.47)"/>
              <rect class="cls-9" x="413.91" y="212.33" width="27.75" height="5" transform="translate(-1.75 3.52) rotate(-.47)"/>
              <rect class="cls-9" x="418.04" y="174.61" width="27.53" height="5"/>
            </g>
            <g>
              <path class="cls-1" d="M260.06,351.22c-86.96,0-157.7-78.11-157.7-174.11S173.1,3,260.06,3s157.7,78.11,157.7,174.11-70.75,174.11-157.7,174.11Z"/>
              <path class="cls-9" d="M260.06,6c85.44,0,154.7,76.61,154.7,171.11s-69.26,171.11-154.7,171.11-154.7-76.61-154.7-171.11S174.62,6,260.06,6M260.06,0c-21.77,0-42.89,4.71-62.76,14.01-19.15,8.96-36.34,21.77-51.08,38.08-30.22,33.42-46.86,77.82-46.86,125.02s16.64,91.59,46.86,125.02c14.75,16.31,31.93,29.12,51.08,38.08,19.87,9.3,40.99,14.01,62.76,14.01s42.89-4.71,62.76-14.01c19.15-8.96,36.34-21.77,51.08-38.08,30.22-33.42,46.86-77.82,46.86-125.02s-16.64-91.59-46.86-125.02c-14.75-16.31-31.93-29.12-51.08-38.08-19.87-9.3-40.99-14.01-62.76-14.01h0Z"/>
            </g>
            <g class="cls-7">
              <path class="cls-5" d="M246.62,6.64c-40.94,8.41-80.41,32.63-108.78,70.7-9.06,12.16-16.44,25-22.16,38.2C136.49,55.87,186.67,12.35,246.62,6.64Z"/>
            </g>
            <g>
              <path class="cls-10" d="M260.06,320.83c-71.81,0-130.23-64.47-130.23-143.72S188.25,33.39,260.06,33.39s130.23,64.47,130.23,143.72-58.42,143.72-130.23,143.72Z"/>
              <path class="cls-9" d="M260.06,36.39c70.27,0,127.23,63,127.23,140.72s-56.96,140.72-127.23,140.72-127.23-63-127.23-140.72,56.96-140.72,127.23-140.72M260.06,30.39c-35.7,0-69.23,15.34-94.42,43.19-25.03,27.68-38.81,64.45-38.81,103.53s13.78,75.85,38.81,103.53c25.18,27.85,58.71,43.19,94.42,43.19s69.23-15.34,94.42-43.19c25.03-27.68,38.81-64.45,38.81-103.53s-13.78-75.85-38.81-103.53c-25.18-27.85-58.71-43.19-94.42-43.19h0Z"/>
            </g>
            <g class="cls-7">
              <path class="cls-5" d="M301.12,43.88c-5.88-.81-11.86-1.23-17.94-1.23-79.05,0-143.14,70.88-143.14,158.32,0,10.5.92,20.75,2.69,30.68-6.38-16.77-9.91-35.2-9.91-54.54,0-77.71,56.97-140.72,127.24-140.72,14.37,0,28.18,2.63,41.06,7.49Z"/>
            </g>
            <g>
              <path class="cls-5" d="M327.51,204.21c.19-16.95-7.38-27.04-24.55-32.74l-1.01-.34.96-.46c6.2-2.99,10.74-8.29,13.13-15.33,2.85-8.4,2.18-18.11-1.79-25.98-6.56-12.99-23.69-17.03-39.58-19.27l-.37-.05.35-29.01-.67-.69-17.04-.21-.35,29.12-15.1-.18.35-29.12-17.04-.21-.69.67-.35,29.06-35.91-.44-.23,18.97,14.12.17c3.25.04,7.98,3.34,8.66,7l-1.01,83.65c-1.27,5.85-8.44,5.35-14.19,4.95-2.14-.15-4.17-.29-5.68-.11l-3.25,21.45,35.85.43-.36,29.74,17.71.22.36-29.74,15.1.18-.36,29.74,17.71.22.36-29.72.41-.02c36.84-1.4,54.14-14.74,54.45-41.98ZM241.86,129.92h.43c.92.01,1.91.01,2.95.01,10.83,0,27.18,0,34.75,7.85,2.83,2.94,4.19,6.76,4.02,11.38-.58,16.38-21.09,17.69-35.04,17.64-1.53,0-2.98-.03-4.31-.05-.99-.02-1.94-.03-2.81-.04h-.43s.45-36.8.45-36.8Z"/>
              <path class="cls-9" d="M275.25,278.96l-23.71-.29.36-29.74-9.1-.11-.36,29.74-23.71-.29.36-29.74-36.29-.44,4.12-27.12,2.28-.26c1.8-.21,3.96-.06,6.24.1,6.65.46,10.22.22,10.99-2.34l1-82.95c-.58-2.06-3.78-4.29-5.69-4.31l-17.12-.21.3-24.96,35.91.44.33-27.31,2.46-2.4,21.28.26-.35,29.12,9.1.11.35-29.12,21.28.26,2.41,2.46-.34,27.63c16.01,2.42,32.74,6.97,39.6,20.56,4.32,8.57,5.05,19.15,1.95,28.29-2.01,5.93-5.42,10.76-9.98,14.21,14.9,6.42,21.79,17.26,21.6,33.72-.32,28.17-18.28,42.85-54.9,44.83l-.36,29.89ZM257.61,272.74l11.71.14.36-29.57,3.26-.12c35.37-1.34,51.27-13.38,51.57-39.01h0c.18-15.64-6.55-24.57-22.49-29.85l-8.04-2.68,7.63-3.67c5.46-2.63,9.46-7.33,11.59-13.59,2.6-7.65,1.99-16.5-1.62-23.66-5.93-11.76-22.19-15.52-37.32-17.64l-2.99-.42.36-29.33-11.71-.14-.35,29.12-21.1-.26.35-29.12-11.71-.14-.36,29.74-35.91-.44-.16,12.97,11.12.14c4.55.05,10.59,4.19,11.57,9.45l.05.29v.29s-1.02,83.96-1.02,83.96l-.06.3c-1.82,8.38-11.51,7.71-17.3,7.31-1-.07-2-.14-2.92-.17l-2.36,15.55,35.4.43-.36,29.74,11.71.14.36-29.74,21.1.26-.36,29.74ZM250.4,169.81c-.51,0-.99,0-1.44,0-1.54,0-3-.03-4.35-.05h-.27c-.89-.02-1.73-.03-2.52-.04l-3.45-.02.52-42.8,3.41.02c.92,0,1.9,0,2.92,0,11.36,0,28.47.02,36.91,8.77,3.42,3.54,5.05,8.11,4.86,13.57-.7,19.76-25.51,20.54-36.61,20.54ZM244.45,163.76h.25c1.33.02,2.76.04,4.28.05.18,0,.35,0,.53,0,21.42,0,31.14-4.56,31.51-14.75.14-3.82-.91-6.83-3.18-9.19-6.68-6.92-22.25-6.93-32.55-6.94h-.45l-.37,30.82Z"/>
            </g>
            <g>
              <path d="M243.28,223.48c-11.58-5.51-13.6-16.59-13.6-25.21,0-1.63.15-4.1.28-5.88.09-1.24,1.12-2.2,2.37-2.2l58.63.23c1.27,0,2.31,1.02,2.36,2.29,0,0,0,.01,0,.02.3,9.05.8,24.21-13.96,30.91-4.85,2.2-11.03,3.3-18.38,3.26-7.05-.04-13-1.19-17.69-3.43Z"/>
              <path class="cls-9" d="M261.37,229.9c-.14,0-.27,0-.41,0-7.49-.04-13.87-1.29-18.97-3.72-10.16-4.84-15.31-14.23-15.31-27.92,0-1.37.1-3.42.29-6.09.2-2.8,2.54-4.99,5.35-4.99h.02l58.63.23c2.9.01,5.25,2.29,5.34,5.19v.1s0,.02,0,.02c.3,9.06.86,26.11-15.72,33.64-5.16,2.34-11.62,3.53-19.22,3.53ZM232.91,193.19c-.15,2.22-.23,3.96-.23,5.08,0,11.33,3.89,18.69,11.89,22.5h0c4.29,2.04,9.82,3.1,16.42,3.14,6.92.07,12.66-.97,17.12-2.99,12.65-5.75,12.51-18.66,12.22-27.5l-57.42-.23Z"/>
            </g>
            <g>
              <path class="cls-5" d="M289.65,201.11h-56.21c-.09-.91-.11-1.86-.11-2.85s.07-2.54.19-4.43l56.19.23c.06,2.18.1,4.57-.06,7.04Z"/>
              <path class="cls-2" d="M288.24,210.65c-1.73,4.14-4.79,7.84-10.13,10.27-4.45,2.02-10.22,3.02-17.11,2.99-3.31-.02-6.34-.3-9.08-.82-2.23-.42-4.26-1.02-6.1-1.78,13.23-7.98,28.26-10.62,42.42-10.66Z"/>
            </g>
            <g>
              <g>
                <path class="cls-5" d="M443.5,178.85l-49.4,8c-7.88,1.32-15.66,3.18-23.29,5.57l-25.38,7.96,9.1,27.32,26.5-8.31c6.88-2.16,13.9-3.83,21.01-5.02l18.63-3.11,9.08-.78,13.75-2.39"/>
                <path class="cls-9" d="M354.54,230.69c-1.26,0-2.43-.8-2.84-2.05l-9.1-27.32c-.25-.76-.19-1.6.17-2.31.37-.72,1-1.26,1.77-1.5l25.38-7.96c7.73-2.42,15.7-4.33,23.69-5.66l52.38-8.48.96,5.92-52.36,8.48c-7.7,1.29-15.4,3.13-22.87,5.47l-22.46,7.04,7.21,21.63,23.69-7.43c6.98-2.19,14.19-3.91,21.41-5.12l18.63-3.11c.08-.01.16-.02.24-.03l8.95-.77,16.57-2.89,1.03,5.91-16.7,2.91c-.08.02-.17.03-.26.03l-8.96.77-18.51,3.09c-6.95,1.16-13.88,2.82-20.6,4.92l-26.5,8.31c-.3.09-.6.14-.9.14Z"/>
              </g>
              <g>
                <g>
                  <path class="cls-5" d="M353.96,226.42l-9.65-28.65c-1.19-3.54.39-7.42,3.73-9.13l7.96-4.08,11.44,5.34c2.6,1.22,4.55,3.5,5.32,6.25l5.09,18.19-4.15,10.52c-1.61,4.09-5.6,6.77-10.02,6.74l-2.53-.02c-3.26-.02-6.14-2.1-7.17-5.17Z"/>
                  <path class="cls-9" d="M363.73,234.6h-.09l-2.53-.02c-4.54-.03-8.56-2.93-10-7.21h0l-9.65-28.65c-1.68-4.98.51-10.35,5.2-12.76l7.96-4.08c.82-.42,1.8-.44,2.64-.05l11.44,5.34c3.4,1.59,5.93,4.56,6.94,8.17l5.09,18.19c.18.63.14,1.3-.1,1.91l-4.15,10.52c-2.04,5.18-7.16,8.64-12.74,8.64ZM356.8,225.46c.63,1.86,2.38,3.11,4.35,3.13l2.53.02c3.18.05,6.06-1.93,7.21-4.84l3.78-9.58-4.82-17.22c-.54-1.91-1.88-3.5-3.7-4.34l-10.11-4.72-6.65,3.41c-2.03,1.04-2.98,3.36-2.25,5.5l9.65,28.65Z"/>
                </g>
                <g>
                  <path class="cls-5" d="M322.76,198.7l-9.47-6.54c-3.79-2.62-5.36-7.05-3.77-10.65h0c1.65-3.73,6.22-5.5,10.81-4.2l5.55,1.58c11.01,3.13,20.53,10.32,26.03,19.67h0c5.11,8.68,6.37,18.43,3.48,27.06l-1.7,5.06c-1.86,5.56-6.52,9.76-12.68,11.44,0,0-13.89,3.84-20.79-4.04-4.16-4.75-12.38-14.79-14.33-20.8-2.61-8.05-1.42-12.82,7.1-15.5l9.76-3.08Z"/>
                  <path class="cls-9" d="M333.39,246.05c-5.01,0-11.2-1.17-15.42-6-3.74-4.28-12.69-14.96-14.92-21.85-1.78-5.51-1.84-9.4-.17-12.64,1.55-3.01,4.57-5.18,9.22-6.65l3.91-1.23-4.42-3.05c-4.95-3.41-6.97-9.44-4.8-14.33,2.27-5.12,8.31-7.59,14.37-5.87l5.55,1.58c11.76,3.35,21.89,11.01,27.8,21.03,5.52,9.37,6.88,20.14,3.74,29.53l-1.7,5.06c-2.19,6.55-7.57,11.42-14.74,13.38-.3.08-3.88,1.04-8.41,1.04ZM317.3,179.88c-2.28,0-4.24,1.04-5.03,2.84-1,2.26.15,5.19,2.72,6.97l9.47,6.54c.94.65,1.43,1.78,1.26,2.92-.17,1.13-.97,2.07-2.06,2.42l-9.76,3.08c-3.05.96-4.91,2.17-5.69,3.68-.86,1.67-.69,4.23.54,8.04,1.54,4.76,8.1,13.32,13.73,19.75,5.56,6.35,17.62,3.16,17.74,3.12,5.21-1.42,9.09-4.88,10.63-9.5l1.7-5.06c2.59-7.75,1.42-16.71-3.22-24.58-5.13-8.71-13.97-15.38-24.27-18.31l-5.55-1.58c-.75-.21-1.5-.32-2.21-.32Z"/>
                </g>
              </g>
            </g>
          </g>
          <g>
            <circle cx="177.38" cy="156.37" r="17"/>
            <g class="cls-7">
              <circle class="cls-5" cx="172.21" cy="151.2" r="5.16"/>
            </g>
          </g>
          <g>
            <circle cx="348.06" cy="156.37" r="17"/>
            <g class="cls-7">
              <circle class="cls-5" cx="342.9" cy="151.2" r="5.16"/>
            </g>
          </g>
        </g>
      </g>
      <g>
        <path class="cls-5" d="M5.98,214.71c3.8-.64,12.47-1.65,15.47,1.4,11.48,11.67,12.13,19.59,9.05,34.21"/>
        <path class="cls-9" d="M33.44,250.94l-5.87-1.24c3-14.28,2.23-20.83-8.26-31.49-1.13-1.15-5.9-1.71-12.84-.54l-.99-5.92c6.22-1.04,14.42-1.5,18.11,2.25,12.42,12.63,13.08,21.6,9.85,36.94Z"/>
      </g>
    </g>
  </g>
</svg>