<svg
          xmlns="http://www.w3.org/2000/svg"
          width="40"
          height="40"
          viewBox="0 0 40 40"
          fill="none"
        >
          <g>
            <path
              d="M33.6 0H6.4C2.86538 0 0 2.86538 0 6.4V33.6C0 37.1346 2.86538 40 6.4 40H33.6C37.1346 40 40 37.1346 40 33.6V6.4C40 2.86538 37.1346 0 33.6 0Z"
              fill="#1F1F1F"
            />
            <path
              d="M32.68 32.6803H27.472V23.8083C27.472 21.3763 26.544 20.0163 24.624 20.0163C22.528 20.0163 21.432 21.4323 21.432 23.8083V32.6803H16.408V15.7763H21.432V18.0563C21.432 18.0563 22.944 15.2643 26.528 15.2643C30.112 15.2643 32.68 17.4563 32.68 21.9843V32.6883V32.6803ZM10.416 13.5603C8.70401 13.5603 7.32001 12.1603 7.32001 10.4403C7.32001 8.72031 8.70401 7.32031 10.416 7.32031C12.128 7.32031 13.512 8.72031 13.512 10.4403C13.512 12.1603 12.128 13.5603 10.416 13.5603ZM7.82401 32.6803H13.056V15.7763H7.82401V32.6803Z"
              fill="white"
            />
          </g>
          <defs>
            <clipPath id="clip0_523_2158">
              <rect width="40" height="40" fill="white" />
            </clipPath>
          </defs>
        </svg>