<svg width="40" height="40" viewBox="0 0 40 40" fill="none" xmlns="http://www.w3.org/2000/svg">
<g clip-path="url(#clip0_1094_9707)">
<path d="M33.6 0H6.4C2.86538 0 0 2.86538 0 6.4V33.6C0 37.1346 2.86538 40 6.4 40H33.6C37.1346 40 40 37.1346 40 33.6V6.4C40 2.86538 37.1346 0 33.6 0Z" fill="#1F1F1F"/>
<path d="M15.157 31.4633C14.9267 31.6278 14.6553 31.6525 14.3921 31.6525C12.6731 31.6525 11.2667 31.6525 9.52312 31.6525C9.13656 31.6525 8.92272 31.4469 8.75 31.1014L8.88159 9.2157C8.96384 9.10055 9.06254 9.00185 9.19413 8.94428C9.58069 8.77157 13.6437 8.74689 14.2276 8.84559C15.4695 9.0512 14.6964 10.5481 16.0041 10.4741C16.3742 10.4494 17.6079 9.5858 18.1425 9.35551C21.6215 7.90798 26.8113 8.22874 29.5336 11.058C33.8269 15.524 31.524 24.8754 32.1326 30.5504C32.1491 31.0603 31.8941 31.6525 31.3266 31.6525C27.5268 31.7759 25.0841 31.7759 21.1527 31.6525C20.4454 31.6278 20.4043 31.0192 20.3467 30.4023C20.1822 28.5929 20.5852 23.7157 21.309 22.079C22.8223 18.6905 28.7605 21.5362 30.4384 19.587C30.8249 19.1346 30.8331 18.5178 30.5124 18.0243C29.8709 17.0538 27.0663 17.9009 25.6598 16.9962C24.6153 16.33 24.9525 15.7378 24.7387 14.8249C24.0149 11.7818 18.3975 12.0121 16.0535 12.4069C12.9857 12.925 12.9281 14.3067 13.3311 17.1113C13.5943 18.929 14.2194 20.8206 14.573 22.6465C15.1159 25.4922 15.6669 28.6094 15.1734 31.4715L15.157 31.4633Z" fill="#F9F9F9"/>
<path d="M21.3255 14.3313C24.1795 14.2491 23.3241 18.9536 20.6346 17.7363C18.8663 16.9385 19.4832 14.3807 21.3255 14.3313Z" fill="#F9F9F9"/>
</g>
<defs>
<clipPath id="clip0_1094_9707">
<rect width="40" height="40" fill="white"/>
</clipPath>
</defs>
</svg>
