<svg width="40" height="40" viewBox="0 0 40 40" fill="none" xmlns="http://www.w3.org/2000/svg">
<g clip-path="url(#clip0_1111_2273)">
<path d="M33.6 0H6.4C2.86538 0 0 2.86538 0 6.4V33.6C0 37.1346 2.86538 40 6.4 40H33.6C37.1346 40 40 37.1346 40 33.6V6.4C40 2.86538 37.1346 0 33.6 0Z" fill="#1F1F1F"/>
<g clip-path="url(#clip1_1111_2273)">
<path d="M22.7949 32.7016C21.8928 32.8949 20.9584 32.9996 20 32.9996C17.3661 32.9996 14.9175 32.2183 12.8717 30.8732C12.3643 30.1483 12.1387 29.7455 11.9696 29.4556C11.889 29.3106 11.8166 29.1898 11.7441 29.077C10.9708 27.8286 10.5601 26.2257 10.4715 24.349C10.1976 18.5175 13.7416 14.7883 17.3661 14.1842C19.6617 13.7976 21.482 14.1842 22.8835 14.9413C21.6431 14.595 20.1691 14.5789 18.4938 15.0541C14.4182 16.367 13.057 20.362 13.6449 24.784C14.6598 30.3255 20.0966 32.3149 22.8029 32.7096L22.7949 32.7016Z" fill="white"/>
<path d="M11.1884 29.561C10.4312 28.2159 9.74659 26.2103 9.65799 24.3819C9.36803 18.188 13.1537 14.0641 17.2292 13.3714C22.7869 12.437 25.8717 15.7233 26.9349 18.1638C26.9833 18.1316 26.9994 18.0752 26.9752 18.0269C25.2274 14.2171 21.6029 11.6074 17.4226 11.6074C12.6704 11.6074 8.43371 15.0145 7 20.0727C7.02416 23.8261 8.62701 27.201 11.1884 29.561Z" fill="white"/>
<path d="M27.3135 30.7528C26.3792 31.3891 25.3482 31.9126 24.2609 32.2912C23.7373 32.2026 23.1574 32.0898 22.7466 32.0093C22.5533 31.969 22.4003 31.9449 22.3036 31.9207C19.8309 31.4696 15.409 29.8748 14.4424 24.6475C14.1686 22.5452 14.3619 20.6121 15.0626 19.0818C15.7473 17.5675 16.9232 16.4077 18.7274 15.8278C20.8216 15.2559 22.5533 15.5378 23.8421 16.2305C23.5279 16.166 23.1977 16.1258 22.8594 16.1258C20.0725 16.1258 17.8173 18.5421 17.8173 21.5304C17.8173 22.7224 18.1797 23.8259 18.7838 24.72C18.7838 24.72 20.5316 28.0223 25.2838 27.7243C29.5205 27.4585 31.7274 23.6568 31.9852 22.2553C32.1221 21.5223 32.1946 20.7732 32.1946 20C32.1946 13.2664 26.7336 7.81351 20.0081 7.81351C14.9176 7.81351 10.5521 10.9387 8.73176 15.3767C8.11962 16.1822 7.58802 17.0682 7.16113 18.0266C8.10351 11.7844 13.492 7 20 7C27.1766 7 33 12.8234 33 20C33 24.4703 30.7448 28.4089 27.3135 30.7528Z" fill="white"/>
</g>
</g>
<defs>
<clipPath id="clip0_1111_2273">
<rect width="40" height="40" fill="white"/>
</clipPath>
<clipPath id="clip1_1111_2273">
<rect width="26" height="26" fill="white" transform="translate(7 7)"/>
</clipPath>
</defs>
</svg>
