<svg width="204" height="1307" viewBox="0 0 204 1307" fill="none" xmlns="http://www.w3.org/2000/svg">
<path d="M1.00008 65.6781C1.00008 60.4646 1.1549 55.1479 1.41295 49.6764C1.67099 44.2049 2.13549 38.6817 2.75481 33.0037C3.37412 27.3773 4.09665 22.0606 4.9224 17.0536C5.74815 12.0467 6.67712 7.45263 7.76093 3.37479L39.1912 3.37479C38.6751 8.74309 38.2106 14.8341 37.8493 21.6477C37.4881 28.4613 37.23 35.533 37.0236 42.8628C36.8687 50.1926 36.7655 57.1611 36.7655 63.8198C36.7655 70.4786 37.3332 76.4663 38.5203 81.4217C39.7073 86.3254 41.72 90.1452 44.7134 92.8293C47.7068 95.5135 51.7323 96.8555 56.9449 96.8555L64.1702 96.8555C70.0537 96.8555 74.5954 95.1005 77.7435 91.6421C80.8917 88.132 82.44 83.1767 82.44 76.7244L82.44 59.7936C82.44 40.7981 86.6204 26.2417 94.9295 16.1761C103.239 6.05895 117.431 1.00035 137.507 1.00035L147.158 1.00035C166.357 0.948735 180.498 6.52351 189.478 17.6214C198.407 28.7194 202.897 44.5662 202.897 65.1103C202.897 72.4401 202.536 79.7183 201.813 86.9964C201.09 94.223 200.265 101.243 199.284 107.953C198.304 114.664 197.271 120.445 196.188 125.297L164.757 125.297C165.273 117.038 165.841 107.902 166.357 97.7847C166.873 87.6675 167.183 78.3246 167.183 69.7043C167.183 63.6134 166.615 58.1934 165.428 53.4445C164.241 48.6957 162.074 45.0824 158.874 42.5531C155.674 40.0238 151.081 38.785 145.197 38.785L139.83 38.785C132.863 38.785 127.856 40.7464 124.812 44.6694C121.767 48.5924 120.27 54.4253 120.27 62.1164L120.27 81.7314C120.27 93.7068 118.051 103.618 113.715 111.412C109.329 119.206 103.29 125.039 95.6005 128.859C87.9106 132.73 79.137 134.64 69.2796 134.64L57.9771 134.64C42.391 134.64 30.5208 131.75 22.2632 125.917C14.0057 120.084 8.43185 112.031 5.49011 101.759C2.54836 91.4356 1.05168 79.4085 1.05168 65.6265L1.00008 65.6781Z" stroke="white" stroke-width="2"/>
<path d="M2.59996 163.959L201.297 163.959L201.297 247.736C201.297 254.188 200.523 260.744 199.026 267.454C197.529 274.164 194.484 280.359 189.891 285.985C185.35 291.611 178.485 296.205 169.351 299.664C160.216 303.174 148.139 304.877 133.121 304.877C118.102 304.877 105.922 303.122 96.581 299.664C87.2913 296.154 80.2208 291.663 75.3695 286.088C70.5182 280.513 67.3184 274.526 65.7185 268.073C64.1186 261.621 63.2928 255.375 63.2928 249.284C63.2928 246.084 63.4477 242.316 63.7057 238.032C63.9638 233.747 64.3766 229.411 64.8927 225.024C65.4088 220.636 65.9249 216.558 66.3894 212.79C66.8539 209.022 67.2152 205.977 67.5764 203.654L2.59996 203.654L2.59996 163.908L2.59996 163.959ZM99.0067 203.705L99.0067 243.193C99.0067 247.839 100.142 251.814 102.361 255.169C104.581 258.472 108.193 260.95 113.096 262.55C117.999 264.15 124.605 264.976 132.811 264.976C141.017 264.976 147.262 264.099 152.01 262.447C156.758 260.744 160.216 258.318 162.332 255.22C164.499 252.072 165.531 248.355 165.531 244.071L165.531 203.809L98.9551 203.809L99.0067 203.705Z" stroke="white" stroke-width="2"/>
<path d="M1.25808 379.053C1.25808 374.768 1.67096 369.813 2.4451 364.29C3.27085 358.715 5.07719 353.398 7.96733 348.34C10.8059 343.23 15.1927 339.049 20.973 335.693C26.8048 332.39 34.8043 330.738 45.023 330.738L155.932 330.738C164.706 330.738 172.034 332.08 177.969 334.764C183.853 337.448 188.549 341.01 191.956 345.501C195.362 349.992 197.787 354.895 199.181 360.264C200.626 365.632 201.349 370.897 201.349 376.111C201.349 389.531 201.194 401.403 200.832 411.676C200.471 421.948 200.058 431.239 199.645 439.446C199.181 447.653 198.613 455.19 197.891 462.003L164.602 462.003L164.602 387.879C164.602 382.305 163.261 378.02 160.577 374.975C157.893 371.929 153.764 370.433 148.242 370.433L119.496 370.433L117.328 449.099L85.8978 449.099L83.7302 370.433L56.3255 370.433C51.6807 370.433 48.068 371.207 45.4359 372.704C42.8554 374.201 41.0491 376.265 40.0685 378.898C39.0879 381.479 38.5718 384.215 38.5718 387.105L38.5718 462.003L5.28362 462.003C4.40626 454.106 3.68373 445.382 3.11603 435.833C2.59993 426.232 2.13544 416.579 1.77417 406.823C1.4129 397.068 1.25808 387.776 1.25808 379.053Z" stroke="white" stroke-width="2"/>
<path d="M2.59995 478.366L201.297 540.67L201.297 590.894L2.59994 653.198L2.59994 611.851L44.1973 599.205L44.1973 531.533L2.59994 519.197L2.59995 478.366ZM79.9111 540.979L79.9111 589.862L167.183 565.447L79.9111 541.031L79.9111 540.979Z" stroke="white" stroke-width="2"/>
<path d="M2.59994 674.929L201.297 674.929L201.297 714.675L119.134 714.675L119.134 741L201.297 781.83L201.297 824.261L101.432 772.694L2.65155 825.861L2.65155 783.431L83.2141 741L83.2141 714.675L2.65156 714.675L2.65156 674.929L2.59994 674.929Z" stroke="white" stroke-width="2"/>
<path d="M1.25806 896.475C1.25806 892.19 1.67093 887.235 2.44508 881.712C3.27083 876.137 5.07717 870.82 7.96731 865.762C10.8058 860.651 15.1927 856.47 20.9729 853.115C26.8048 849.812 34.8043 848.16 45.023 848.16L155.932 848.16C164.706 848.16 172.034 849.502 177.969 852.186C183.853 854.87 188.549 858.432 191.956 862.923C195.362 867.414 197.787 872.317 199.181 877.686C200.626 883.054 201.349 888.319 201.349 893.532C201.349 906.953 201.194 918.825 200.832 929.097C200.471 939.369 200.058 948.661 199.645 956.868C199.181 965.075 198.613 972.612 197.891 979.425L164.602 979.425L164.602 905.301C164.602 899.727 163.261 895.442 160.577 892.397C157.893 889.351 153.764 887.854 148.242 887.854L119.496 887.854L117.328 966.521L85.8978 966.521L83.7302 887.854L56.3255 887.854C51.6806 887.854 48.068 888.629 45.4359 890.126C42.8554 891.622 41.0491 893.687 40.0685 896.32C39.0879 898.901 38.5718 901.636 38.5718 904.527L38.5718 979.425L5.2836 979.425C4.40624 971.528 3.68371 962.804 3.11601 953.255C2.59991 943.654 2.13541 934.001 1.77415 924.245C1.41288 914.489 1.25806 905.198 1.25806 896.475Z" stroke="white" stroke-width="2"/>
<path d="M2.5999 1008.43L201.297 1008.43L201.297 1090.61C201.297 1098.51 200.368 1105.84 198.458 1112.65C196.549 1119.47 193.297 1125.45 188.653 1130.67C184.008 1135.88 177.556 1139.91 169.299 1142.9C161.041 1145.84 150.513 1147.34 137.611 1147.34C128.476 1147.34 120.683 1146.46 114.231 1144.66C107.78 1142.85 102.516 1140.47 98.3873 1137.53C94.2586 1134.59 90.9555 1131.23 88.4783 1127.47C85.9494 1123.7 83.9366 1119.88 82.2851 1115.9L2.5483 1152.97L2.5483 1112.39L76.092 1080.44C76.092 1078.27 76.092 1075.85 76.2468 1073.06C76.35 1070.27 76.4016 1067.49 76.4016 1064.6L76.4016 1055.98C76.4016 1053.14 76.5049 1050.5 76.6597 1048.18L2.5483 1048.18L2.5483 1008.43L2.5999 1008.43ZM108.142 1048.18L108.142 1083.64C108.142 1087.2 108.606 1090.46 109.483 1093.3C110.361 1096.13 111.961 1098.66 114.18 1100.83C116.399 1103 119.392 1104.65 123.16 1105.79C126.927 1106.92 131.727 1107.54 137.662 1107.54C143.184 1107.54 147.829 1106.97 151.494 1105.79C155.158 1104.6 158.048 1102.95 160.061 1100.83C162.125 1098.66 163.57 1096.19 164.344 1093.3C165.17 1090.4 165.531 1087.2 165.531 1083.64L165.531 1048.18L108.09 1048.18L108.142 1048.18Z" stroke="white" stroke-width="2"/>
<path d="M1.00003 1236.69C1.00003 1231.48 1.15485 1226.16 1.4129 1220.69C1.67094 1215.22 2.13544 1209.69 2.75476 1204.02C3.37407 1198.39 4.0966 1193.07 4.92235 1188.07C5.74811 1183.06 6.67707 1178.47 7.76088 1174.39L39.1911 1174.39C38.675 1179.76 38.2106 1185.85 37.8493 1192.66C37.488 1199.47 37.23 1206.55 37.0235 1213.88C36.8687 1221.21 36.7655 1228.17 36.7655 1234.83C36.7655 1241.49 37.3332 1247.48 38.5202 1252.43C39.7072 1257.34 41.72 1261.16 44.7134 1263.84C47.7067 1266.53 51.7323 1267.87 56.9448 1267.87L64.1702 1267.87C70.0537 1267.87 74.5953 1266.11 77.7435 1262.65C80.8917 1259.14 82.44 1254.19 82.44 1247.74L82.44 1230.81C82.44 1211.81 86.6204 1197.25 94.9295 1187.19C103.239 1177.07 117.431 1172.01 137.507 1172.01L147.158 1172.01C166.512 1172.01 180.601 1177.59 189.582 1188.69C198.51 1199.78 203 1215.63 203 1236.23C203 1243.56 202.639 1250.83 201.916 1258.11C201.194 1265.34 200.368 1272.36 199.387 1279.07C198.407 1285.78 197.375 1291.56 196.291 1296.41L164.861 1296.41C165.377 1288.15 165.944 1279.02 166.46 1268.9C166.977 1258.78 167.286 1249.44 167.286 1240.82C167.286 1234.73 166.718 1229.31 165.531 1224.56C164.344 1219.81 162.177 1216.2 158.977 1213.67C155.777 1211.14 151.184 1209.9 145.3 1209.9L139.933 1209.9C132.966 1209.9 127.96 1211.86 124.915 1215.79C121.87 1219.71 120.373 1225.54 120.373 1233.23L120.373 1252.85C120.373 1264.82 118.154 1274.73 113.819 1282.53C109.432 1290.32 103.393 1296.16 95.7036 1299.97C88.0138 1303.85 79.2402 1305.76 69.3827 1305.76L58.0802 1305.76C42.4941 1305.76 30.6239 1302.87 22.3664 1297.03C14.1089 1291.2 8.53502 1283.15 5.59328 1272.88C2.65153 1262.55 1.15485 1250.52 1.15485 1236.74L1.00003 1236.69Z" stroke="white" stroke-width="2"/>
</svg>
