<svg width="25" height="30" viewBox="0 0 25 30" fill="none" xmlns="http://www.w3.org/2000/svg">
<path fill-rule="evenodd" clip-rule="evenodd" d="M16.3233 7.42356C17.6261 8.1757 19.2919 7.72935 20.044 6.42661L22.2434 7.6964C23.1999 8.24868 23.5277 9.47186 22.9754 10.4284L16.7122 21.2767L4.13177 14.0134L10.395 3.16516C10.9473 2.20858 12.1705 1.88082 13.1271 2.43311L15.3264 3.70288C14.5742 5.00562 15.0206 6.67142 16.3233 7.42356ZM3.22386 15.586L15.8042 22.8493L14.0805 25.8349C13.5282 26.7915 12.305 27.1193 11.3484 26.567L2.23213 21.3037C1.27555 20.7514 0.9478 19.5282 1.50008 18.5716L3.22386 15.586Z" fill="white"/>
</svg>
