<svg
          xmlns="http://www.w3.org/2000/svg"
          width="40"
          height="40"
          viewBox="0 0 40 40"
          fill="none"
        >
          <g>
            <path
              d="M33.6 0H6.4C2.86538 0 0 2.86538 0 6.4V33.6C0 37.1346 2.86538 40 6.4 40H33.6C37.1346 40 40 37.1346 40 33.6V6.4C40 2.86538 37.1346 0 33.6 0Z"
              fill="#1F1F1F"
            />
            <path
              d="M14.5015 6.40039L21.1983 16.3747L29.8958 6.40039H31.9041L22.6839 18.0371L32.8 33.6004H25.506L18.0627 23.0318L9.23816 33.6004H7.20001L16.9801 21.4145L7.20748 6.40039H14.5015ZM29.8212 31.7876L13.6952 8.21322H10.1863L26.2824 31.8327L29.8286 31.78L29.8212 31.7876Z"
              fill="white"
            />
          </g>
          <defs>
            <clipPath id="clip0_523_2167">
              <rect width="40" height="40" fill="white" />
            </clipPath>
          </defs>
        </svg>