<svg width="40" height="40" viewBox="0 0 40 40" fill="none" xmlns="http://www.w3.org/2000/svg">
<g clip-path="url(#clip0_1096_664)">
<path d="M33.6 0H6.4C2.86538 0 0 2.86538 0 6.4V33.6C0 37.1346 2.86538 40 6.4 40H33.6C37.1346 40 40 37.1346 40 33.6V6.4C40 2.86538 37.1346 0 33.6 0Z" fill="#1F1F1F"/>
<g clip-path="url(#clip1_1096_664)">
<path d="M32.931 15.1754C32.779 13.0921 31.216 11.4056 29.1769 11.1546C27.935 11 26.4638 11.0788 25.199 11.0554C25.0814 11.0554 24.9724 11.0029 24.8549 11L16.0674 11.0175C14.8744 11.1021 13.667 11.0438 12.4739 11.105C10.0275 11.2276 8.3096 12.7011 8.0687 15.225C8.23791 18.3237 7.84786 21.6646 8.0687 24.7371C8.25225 27.2551 10.1508 28.6936 12.5169 28.8133C17.6362 29.0671 23.3664 29.0613 28.4828 28.8133C30.955 28.6936 32.6787 27.2493 32.9339 24.6904C32.7647 21.5917 33.1547 18.2508 32.9339 15.1783L32.931 15.1754ZM18.0148 23.8005V16.1616L24.4275 19.981L18.0148 23.8005Z" fill="white"/>
</g>
</g>
<defs>
<clipPath id="clip0_1096_664">
<rect width="40" height="40" fill="white"/>
</clipPath>
<clipPath id="clip1_1096_664">
<rect width="25" height="18" fill="white" transform="translate(8 11)"/>
</clipPath>
</defs>
</svg>
