<svg width="138" height="26" viewBox="0 0 138 26" fill="none" xmlns="http://www.w3.org/2000/svg">
<path fill-rule="evenodd" clip-rule="evenodd" d="M40.716 14.312H43.4099V8.93607H46.1032V6.24807H43.4099V3.56007V0.87207H40.716V3.56007H38.0228V6.24807H35.3294V8.93607H38.0228V14.312H35.3294V22.376H38.0228V25.064H43.4099V22.376H46.1032V19.688H43.4099V22.376H40.716V14.312ZM75.7309 19.688V22.376H81.1181V25.064H73.0377V22.376H70.3444V11.6241H73.0377V8.93607H75.7309V17H73.0377V19.688H75.7309ZM75.7309 8.93607V6.24807H83.8113V8.93607H86.5046V19.688H83.8113V22.376H81.1181V14.312H83.8113V11.6241H81.1181V8.93607H75.7309ZM67.6505 11.6241H70.3444V3.56007H67.6505V0.87207H51.4903V3.56007H54.1836V6.24807H51.4903V14.3121H48.7964V22.3761L46.1032 22.376V25.0641H56.8768V22.3761H54.1836V17.0001H64.9573V14.3121H67.6505V11.6241ZM19.1687 14.3121H21.8622V22.3761H19.1687V25.0641H0.314575V22.3761H3.00803V14.3121H5.70148V6.24807H8.39492V3.56007H5.70148V0.87207H21.8622V3.56007H24.5556V8.93607H21.8622V11.6241H19.1687V14.3121ZM21.8622 25.064V22.3761L24.5556 22.376V14.312H27.2491V8.93607H32.636V14.312H29.9425V22.376H32.636V25.064H21.8622ZM13.7818 3.56007V6.24807H11.0884V11.6241H16.4753V8.93607H19.1687V3.56007H13.7818ZM8.39492 17.0001V22.3761H13.7818V19.6881H16.4753V14.3121H11.0884V17.0001H8.39492ZM126.907 22.376V19.688H124.213V17H126.907V8.93607H132.293V11.6241H134.987V14.312H132.293V22.376H126.907ZM118.826 22.376V19.688H121.52V11.6241H124.213V8.93607H126.907V6.24807H134.987V8.93607H137.68V19.688H134.987V22.376H132.293V25.064H124.213V22.376H118.826ZM118.826 25.064V22.376H116.133V14.312H118.826V8.93607H121.52V6.24807H118.826V0.87207H116.133V3.56007H113.439V6.24807H110.746V8.93607H113.439V14.312H110.746V22.376H113.439V25.064H118.826ZM99.9722 6.24807H97.2789V14.312H94.585V25.064H86.5046V22.376H89.1985V14.312H91.8918V6.24807H94.585V0.87207H99.9722V6.24807ZM62.264 11.6241V14.3121H56.8768V6.24807H59.5701V3.56007H64.9573V11.6241H62.264ZM27.2491 6.24807V0.87207H32.636V3.56007H29.9425V6.24807H27.2491ZM102.665 8.93607V14.312H99.9722V22.376H97.2789V25.064H108.053V22.376H105.359V14.312H108.053V8.93607H102.665ZM105.359 6.24807H102.665V0.87207H108.053V3.56007H105.359V6.24807Z" fill="#001CE0"/>
</svg>
