<svg width="132" height="38" viewBox="0 0 132 38" fill="none" xmlns="http://www.w3.org/2000/svg">
<g clip-path="url(#clip0_1110_2175)">
<path d="M29.0219 15.0265C28.0642 15.0043 27.1309 15.3247 26.3956 15.9281C25.6408 16.5701 25.11 17.4285 24.8778 18.3824H24.8098V15.3601H21.0933V32.9854H24.8098V22.4812C24.7886 21.7112 24.9461 20.9465 25.2705 20.2452C25.556 19.6488 26.0194 19.152 26.5993 18.8206C27.225 18.4795 27.9322 18.3089 28.6475 18.3265C28.9777 18.3245 29.3075 18.3444 29.6349 18.386C29.8614 18.4096 30.0848 18.4568 30.3011 18.5267V15.16C30.124 15.1187 29.9444 15.0879 29.7634 15.0679C29.5174 15.0392 29.2698 15.0253 29.0219 15.0265Z" fill="white"/>
<path d="M43.3778 15.7458C42.3109 15.2648 41.0433 15.0244 39.575 15.0244C38.1068 15.0244 36.8392 15.2582 35.7722 15.7258C34.7802 16.1366 33.9161 16.7971 33.267 17.641C32.6676 18.4412 32.3072 19.3898 32.2264 20.3802L32.2117 20.5605H35.6878L35.7227 20.4108C35.8823 19.7049 36.3129 19.0868 36.9248 18.6851C37.569 18.2396 38.4169 18.0143 39.4759 18.0143C40.6212 18.0143 41.5015 18.2913 42.117 18.8456C42.7317 19.3974 43.0346 20.1601 43.0346 21.1321V22.4521L38.16 22.7406C36.0433 22.8608 34.4037 23.3718 33.2414 24.2734C32.0789 25.175 31.4959 26.3953 31.4922 27.9341V27.9666C31.4727 28.9448 31.7327 29.9088 32.2429 30.7491C32.7464 31.5575 33.4741 32.2081 34.3407 32.6244C35.3178 33.0899 36.3935 33.3204 37.4791 33.297C38.2429 33.3013 39.0015 33.173 39.72 32.9184C40.407 32.6732 41.0446 32.3106 41.603 31.8473C42.1592 31.3857 42.6219 30.8253 42.9667 30.1954H43.0346V32.9761H46.7548V20.8382C46.7793 19.752 46.4704 18.6838 45.8684 17.7726C45.2496 16.8795 44.3861 16.1768 43.3778 15.7458ZM43.0364 26.3851C43.047 27.1118 42.8396 27.8255 42.44 28.4373C42.0388 29.05 41.4762 29.5449 40.812 29.869C40.0901 30.2239 39.2919 30.4027 38.4849 30.3902C37.4975 30.3902 36.7021 30.1666 36.099 29.7193C35.8104 29.5089 35.5784 29.2327 35.423 28.9144C35.2676 28.5961 35.1935 28.2454 35.207 27.8926V27.8602C35.1966 27.5112 35.2722 27.1649 35.4275 26.8509C35.5829 26.5369 35.8133 26.2645 36.099 26.0569C36.6997 25.6037 37.55 25.344 38.65 25.2779L43.031 25.0092L43.0364 26.3851Z" fill="white"/>
<path d="M59.5947 15.0264C58.2415 15.0264 57.1048 15.3029 56.1846 15.8559C55.2962 16.374 54.5704 17.1227 54.0869 18.0199H54.019V15.36H50.3025V32.9853H54.019V22.7156C53.9986 21.8824 54.1771 21.0561 54.5402 20.3028C54.8672 19.6426 55.3824 19.0901 56.0231 18.7123C56.7082 18.321 57.4903 18.1237 58.2824 18.1425C59.5562 18.1425 60.5081 18.4995 61.1382 19.2136C61.7683 19.9277 62.084 20.9496 62.0852 22.2792V32.9835H65.7852V21.5759C65.7852 19.5442 65.2451 17.9447 64.1647 16.7774C63.0843 15.6101 61.5609 15.0264 59.5947 15.0264Z" fill="white"/>
<path d="M81.7452 18.3626H81.6717C81.1529 17.354 80.3585 16.5073 79.3776 15.9173C78.3621 15.3169 77.1949 15.0094 76.0098 15.0301C74.6153 14.9994 73.2444 15.3876 72.0804 16.1427C70.9238 16.9309 70.0192 18.026 69.4724 19.3003C68.852 20.6635 68.5425 22.2835 68.5437 24.1601V24.1763C68.5437 26.0529 68.8496 27.6759 69.4614 29.0452C70.0028 30.3266 70.9081 31.4278 72.0694 32.2172C73.1962 32.9692 74.5177 33.3406 76.0428 33.3406C77.2081 33.3734 78.3584 33.0761 79.3564 32.4843C80.3545 31.8924 81.1582 31.031 81.6717 30.0028H81.7397V32.9854H85.4561V0.149414H81.7452V18.3626ZM81.7635 24.1763C81.7875 25.2676 81.5813 26.3519 81.1579 27.361C80.8076 28.1994 80.2292 28.9268 79.4859 29.4636C78.7662 29.9625 77.9036 30.2234 77.0229 30.2083C76.1313 30.2295 75.255 29.9774 74.5158 29.487C73.7772 28.9625 73.2107 28.2373 72.8861 27.4006C72.4827 26.3716 72.2875 25.2752 72.3117 24.1728V24.1565C72.2855 23.0607 72.4795 21.9706 72.8824 20.9485C73.2126 20.1163 73.7789 19.3948 74.5141 18.8693C75.2522 18.3768 76.1292 18.1245 77.021 18.1479C77.8965 18.1315 78.7545 18.3906 79.4694 18.8873C80.2082 19.4255 80.7857 20.1494 81.1414 20.9827C81.5719 21.9862 81.7814 23.0678 81.7562 24.1565L81.7635 24.1763Z" fill="white"/>
<path d="M106.889 12.7315C106.18 11.5064 105.13 10.5055 103.863 9.8462C102.567 9.15254 101.055 8.80566 99.3254 8.80566H89.4355V12.8306H98.0609C98.3997 12.8289 98.7377 12.8499 99.0723 12.8937C99.9719 12.9862 100.821 13.3468 101.506 13.927C102.322 14.6604 102.731 15.7189 102.734 17.1026V17.1387C102.734 18.5007 102.324 19.5532 101.506 20.2962C100.824 20.8845 99.9745 21.2505 99.0723 21.3439C98.7377 21.3883 98.3997 21.41 98.0609 21.4089H89.4355V32.9859H94.5868V25.3814H99.3254C99.7113 25.3814 100.085 25.364 100.445 25.3291C101.64 25.2321 102.802 24.899 103.863 24.35C105.13 23.6899 106.179 22.6892 106.889 21.4647C106.952 21.3577 107.013 21.2513 107.073 21.1456C107.695 19.8954 108.005 18.5175 107.978 17.126V17.0918C108.005 15.6897 107.69 14.3017 107.06 13.0434C106.999 12.9352 106.948 12.8324 106.889 12.7315Z" fill="url(#paint0_linear_1110_2175)"/>
<path d="M125.316 24.4203C126.75 23.8782 127.965 22.8912 128.777 21.609C129.644 20.257 130.091 18.6858 130.062 17.0882V17.0539C130.062 15.3299 129.69 13.8555 128.944 12.6304C128.183 11.3902 127.06 10.4042 125.719 9.8011C124.325 9.1375 122.647 8.80566 120.687 8.80566H111.162V33.3304H116.314V25.2913L119.746 25.239L125.777 33.3304H132L125.316 24.4203ZM124.446 17.1008C124.446 18.3594 124.058 19.3459 123.282 20.0599C122.509 20.7813 121.447 21.142 120.089 21.142H116.314V13.038H120.015C121.361 13.038 122.435 13.3986 123.238 14.12C124.04 14.8413 124.443 15.8217 124.446 17.0611V17.1008Z" fill="url(#paint1_linear_1110_2175)"/>
<path d="M15.5599 21.1996C14.6284 20.6499 13.5799 20.3197 12.4967 20.2349V20.1663C13.3496 20.0527 14.1578 19.7233 14.8423 19.2106C15.525 18.7034 16.0817 18.0504 16.4702 17.301C16.8654 16.5574 17.0707 15.7306 17.0685 14.8918V14.8593C17.1044 13.7405 16.7978 12.637 16.1882 11.6914C15.5785 10.7459 14.6941 10.0019 13.6493 9.55583C12.5652 9.05572 11.289 8.80566 9.8208 8.80566H7.8772V11.8713H8.90134C10.2876 11.8713 11.3582 12.1718 12.1131 12.7729C12.8681 13.374 13.2462 14.2288 13.2473 15.3372V15.3714C13.2473 16.5736 12.8038 17.5006 11.9167 18.1521C11.0297 18.8037 9.74496 19.127 8.06257 19.1223H3.26871V11.8713H5.32243V8.80566H0V32.9859H5.32243V29.9204H3.26871V22.0112H8.83341C9.8694 21.9841 10.9023 22.1348 11.8855 22.4565C12.6379 22.6798 13.2916 23.1463 13.7403 23.7803C14.189 24.4143 14.4066 25.1787 14.3577 25.9495V25.9837C14.3577 27.2689 13.9081 28.2456 13.0087 28.9141C12.1094 29.5825 10.8088 29.9173 9.10691 29.9185H7.8772V32.9841H9.87402C11.6213 32.9841 13.1213 32.7106 14.3742 32.1636C15.5505 31.6778 16.5552 30.8624 17.2631 29.8193C17.9396 28.8023 18.278 27.5851 18.278 26.1677V26.1316C18.2957 25.1305 18.0525 24.1416 17.5714 23.259C17.0947 22.4122 16.4014 21.7024 15.5599 21.1996Z" fill="white"/>
<path d="M3.26874 3.94531H0.721313V7.15696H3.26874V3.94531Z" fill="white"/>
<path d="M7.8772 3.94531H5.32977V7.15696H7.8772V3.94531Z" fill="white"/>
<path d="M3.26874 34.6387H0.721313V37.8503H3.26874V34.6387Z" fill="white"/>
<path d="M7.8772 34.6387H5.32977V37.8503H7.8772V34.6387Z" fill="white"/>
</g>
<defs>
<linearGradient id="paint0_linear_1110_2175" x1="89.4355" y1="20.8985" x2="107.97" y2="20.8985" gradientUnits="userSpaceOnUse">
<stop stop-color="#F90297"/>
<stop offset="1" stop-color="#8B0E7D"/>
</linearGradient>
<linearGradient id="paint1_linear_1110_2175" x1="111.162" y1="21.0752" x2="132" y2="21.0752" gradientUnits="userSpaceOnUse">
<stop stop-color="#F90297"/>
<stop offset="1" stop-color="#8B0E7D"/>
</linearGradient>
<clipPath id="clip0_1110_2175">
<rect width="132" height="38" fill="white"/>
</clipPath>
</defs>
</svg>
