<svg width="120" height="52" viewBox="0 0 120 52" fill="none" xmlns="http://www.w3.org/2000/svg">
<path d="M3.04964 51.9886C1.3661 51.9886 0.00183105 50.6231 0.00183105 48.9395V3.06176C0.00183105 1.37759 1.36673 0.0126953 3.04964 0.0126953C4.73256 0.0126953 6.09808 1.37822 6.09808 3.06176V48.9395C6.09808 50.6231 4.73319 51.9886 3.04964 51.9886Z" fill="#CEDC21"/>
<path d="M3.05155 51.9887C1.91121 51.9887 0.817907 51.3458 0.295407 50.2468C-0.426559 48.7264 0.221391 46.9086 1.7431 46.1847L20.126 37.4622L1.2413 23.5491C-0.113561 22.5499 -0.402723 20.6418 0.59586 19.2863C1.59444 17.9308 3.5038 17.6417 4.85803 18.6403L27.8449 35.5754C28.7086 36.2127 29.1747 37.2552 29.0718 38.3234C28.9689 39.3897 28.3135 40.3243 27.3437 40.7854L4.35623 51.6945C3.93534 51.8933 3.48937 51.9887 3.05155 51.9887Z" fill="#51B13E"/>
<path d="M3.0528 33.9557C2.11631 33.9557 1.193 33.526 0.595853 32.7143C-0.402731 31.3601 -0.113568 29.4501 1.24192 28.4522L20.1259 14.5397L1.7431 5.81529C0.221384 5.09332 -0.426566 3.27492 0.294772 1.75384C1.01737 0.232126 2.83577 -0.415824 4.35622 0.305514L27.3437 11.2159C28.3135 11.6757 28.9689 12.6116 29.0718 13.6785C29.1747 14.7461 28.7086 15.7886 27.8449 16.4252L4.85802 33.361C4.31294 33.7618 3.68005 33.9557 3.0528 33.9557Z" fill="#CEDC21"/>
<path d="M6.09808 19.5547V32.4466L14.8445 26.0035L6.09808 19.5547Z" fill="#1E7A44"/>
<path d="M6.09871 14.1484H0.00183105V29.0093H6.09871V14.1484Z" fill="white"/>
<path d="M6.09808 3.06176C6.09808 1.37759 4.73256 0.0126953 3.04964 0.0126953C1.36673 0.0126953 0.00183105 1.37822 0.00183105 3.06176V41.4276H6.09871V3.06176H6.09808Z" fill="#CEDC21"/>
<path d="M46.4235 25.6307C48.3767 26.1852 49.4594 27.954 49.4594 30.1707C49.4594 33.6288 47.3468 35.2402 44.4696 35.2402H37.8966V16.7607H43.7043C46.5295 16.7607 48.7204 18.1068 48.7204 21.6175C48.7204 23.387 47.9809 25.0235 46.4235 25.6307ZM43.7307 25.1816C45.8156 25.1816 47.5055 24.4421 47.5055 21.5912C47.5055 18.7146 45.7642 17.9481 43.651 17.9481H39.1367V25.181L43.7307 25.1816ZM44.3905 34.0252C46.5019 34.0252 48.1917 32.9162 48.1917 30.1707C48.1917 27.2145 46.2648 26.3169 43.863 26.3169H39.1373V34.0246L44.3905 34.0252Z" fill="white"/>
<path d="M61.8149 16.7607V17.8961H56.7204V35.2402H55.4791V17.8961H50.3839V16.7607H61.8149Z" fill="white"/>
<path d="M70.4992 16.4971C73.6418 16.4971 76.492 18.0803 77.3908 21.8557H76.2022C75.3567 18.7677 72.8759 17.633 70.4729 17.633C66.1173 17.633 63.8209 21.1964 63.8209 26.0012C63.8209 31.0694 66.1173 34.316 70.4986 34.316C73.086 34.316 75.4087 33.1556 76.307 29.7503H77.4956C76.7028 33.6837 73.5884 35.5047 70.4992 35.5047C65.5628 35.5047 62.6065 31.8616 62.6065 26.0018C62.6065 20.3779 65.7233 16.4971 70.4992 16.4971Z" fill="white"/>
<path d="M86.7896 16.7607C89.9829 16.7607 92.3063 18.847 92.3063 22.8852C92.3063 26.6864 89.9829 28.9834 86.7896 28.9834H81.9309V35.2408H80.7172V16.7607H86.7896ZM86.7896 27.7684C89.1386 27.7684 91.0649 26.2649 91.0649 22.8589C91.0649 19.4535 89.2164 17.923 86.7896 17.923H81.9309V27.7684H86.7896Z" fill="white"/>
<path d="M92.5176 35.2411V35.0812L99.8822 16.709H100.437L107.723 35.0812V35.2411H106.429L104.346 29.9089H95.923L93.838 35.2411H92.5176ZM100.148 18.9L96.347 28.7459H103.923L100.148 18.9Z" fill="white"/>
<path d="M118.68 16.7607H120V16.9445L114.244 27.5576V35.2402H112.977V27.5576L107.197 16.9188V16.7607H108.543L111.05 21.4601L113.586 26.3439H113.611L116.171 21.4601L118.68 16.7607Z" fill="white"/>
</svg>
