<svg width="159" height="18" viewBox="0 0 159 18" fill="none" xmlns="http://www.w3.org/2000/svg">
<path fill-rule="evenodd" clip-rule="evenodd" d="M68.3294 5.07526C69.4215 6.22956 69.9838 7.67646 69.9838 9.38376C69.9838 11.0907 69.4215 12.5376 68.3294 13.6919C67.2048 14.8784 65.743 15.4804 64.0084 15.4804C62.273 15.4804 60.8112 14.8784 59.687 13.6919C58.5949 12.5376 58.0322 11.0907 58.0322 9.38376C58.0322 7.67646 58.5949 6.22956 59.687 5.07526C60.8112 3.88841 62.273 3.28711 64.0084 3.28711C65.743 3.28711 67.2048 3.88841 68.3294 5.07526Z" fill="#01C3C5"/>
<path fill-rule="evenodd" clip-rule="evenodd" d="M5.81007 3.92217V5.19022C5.81007 5.43417 5.6337 5.66167 5.39266 5.74287C5.26402 5.77542 5.15197 5.80832 5.03923 5.85697C4.60592 6.05192 4.25214 6.31232 3.94678 6.65357C3.33676 7.35252 3.03174 8.24642 3.03174 9.38462C3.03174 10.5228 3.33676 11.4171 3.94678 12.116C4.33272 12.5553 4.7982 12.8475 5.39266 13.0264C5.6337 13.0915 5.81007 13.319 5.81007 13.5629V14.8471C5.81007 15.0259 5.73019 15.1887 5.60154 15.286C5.4888 15.384 5.3605 15.4165 5.23186 15.4165H5.11981C3.97895 15.1726 2.99889 14.6035 2.21214 13.7253C1.19993 12.5714 0.686035 11.1241 0.686035 9.38462C0.686035 7.66157 1.19993 6.19822 2.21214 5.04392C2.99889 4.16612 3.97895 3.59702 5.11981 3.36952C5.29618 3.32052 5.45699 3.36952 5.60154 3.48327C5.73019 3.58057 5.81007 3.74332 5.81007 3.92217Z" fill="#01C3C5"/>
<path fill-rule="evenodd" clip-rule="evenodd" d="M6.83862 5.10954V3.92269C6.83862 3.76029 6.90329 3.59754 7.03194 3.49989C7.15989 3.38614 7.32104 3.33749 7.4815 3.35359C8.39689 3.49989 9.21614 3.82539 9.93891 4.34549C10.8546 5.01189 11.5297 5.92259 11.9149 7.06044C11.9789 7.23929 11.9467 7.43459 11.8506 7.58089C11.7382 7.74329 11.5615 7.82449 11.3848 7.82449H10.1001C9.87493 7.82449 9.66606 7.69464 9.56957 7.48324C9.32888 6.91414 8.9758 6.47524 8.49338 6.13399C8.13995 5.90614 7.75436 5.74374 7.32104 5.67829C7.03194 5.62999 6.83862 5.40214 6.83862 5.10954Z" fill="#01C3C5"/>
<path fill-rule="evenodd" clip-rule="evenodd" d="M11.8506 11.2947C11.9467 11.441 11.9789 11.636 11.9149 11.8152C11.5297 12.953 10.8546 13.8634 9.93891 14.5298C9.21614 15.0499 8.39689 15.3754 7.4815 15.5217H7.40093C7.25672 15.5217 7.12773 15.473 7.03159 15.3754C6.90329 15.2777 6.83862 15.1153 6.83862 14.9529V13.7657C6.83862 13.4731 7.03159 13.2456 7.30444 13.197C7.75436 13.1319 8.13995 12.9856 8.49338 12.7416C8.9758 12.4004 9.32888 11.9615 9.56957 11.392C9.66606 11.181 9.87493 11.0508 10.1001 11.0508H11.3848C11.5615 11.0508 11.7382 11.132 11.8506 11.2947Z" fill="#01C3C5"/>
<path fill-rule="evenodd" clip-rule="evenodd" d="M16.4063 8.91199H19.5387C20.4707 8.91199 21.0807 8.65194 21.4182 8.11539C21.5144 7.93654 21.5787 7.67649 21.5787 7.36779C21.5787 6.83124 21.4182 6.45744 21.0807 6.16449C20.7114 5.85579 20.2297 5.70949 19.603 5.70949H16.4063V8.91199ZM24.0365 14.4721C24.1492 14.6513 24.1492 14.8784 24.0527 15.0576C23.9559 15.2365 23.7636 15.3502 23.571 15.3502H22.1248C21.9321 15.3502 21.7558 15.2526 21.6593 15.0902L19.2496 11.2045H16.4063V14.7815C16.4063 15.0902 16.1493 15.3502 15.8443 15.3502H14.6395C14.3341 15.3502 14.0771 15.0902 14.0771 14.7815V3.98609C14.0771 3.67704 14.3341 3.41699 14.6395 3.41699H19.7476C20.9683 3.41699 21.9805 3.77469 22.7355 4.47364C23.5067 5.18904 23.8919 6.14839 23.8919 7.36779C23.8919 8.92844 23.2013 10.0663 21.9 10.6354C21.8197 10.684 21.7236 10.7166 21.6434 10.7495L24.0365 14.4721Z" fill="#01C3C5"/>
<path fill-rule="evenodd" clip-rule="evenodd" d="M35.8931 3.72604C35.9893 3.90489 35.9734 4.13239 35.8606 4.31124L31.4919 10.684V14.7811C31.4919 15.0902 31.2342 15.3502 30.9292 15.3502H29.7247C29.4194 15.3502 29.1621 15.0902 29.1621 14.7811V10.684L24.7767 4.31124C24.6647 4.13239 24.6484 3.90489 24.7449 3.72604C24.8417 3.53074 25.034 3.41699 25.2429 3.41699H26.705C26.8976 3.41699 27.0581 3.51464 27.1705 3.66094L30.3192 8.24559L33.4672 3.66094C33.5803 3.51464 33.7404 3.41699 33.9334 3.41699H35.3955C35.604 3.41699 35.7967 3.53074 35.8931 3.72604Z" fill="#01C3C5"/>
<path fill-rule="evenodd" clip-rule="evenodd" d="M39.5891 9.22104H42.5448C43.2355 9.22104 43.7331 9.07474 44.0551 8.76569C44.3763 8.45699 44.5205 8.03419 44.5205 7.46509C44.5205 6.89599 44.3763 6.47354 44.0551 6.18094C43.7331 5.87189 43.2192 5.70949 42.5448 5.70949H39.5891V9.22104ZM45.6932 4.52264C46.4644 5.25414 46.8496 6.24604 46.8496 7.46509C46.8496 8.68449 46.4644 9.67604 45.6932 10.4079C44.9224 11.1394 43.8942 11.4967 42.6251 11.4967H39.5891V14.7811C39.5891 15.0902 39.3322 15.3502 39.0268 15.3502H37.822C37.517 15.3502 37.26 15.0902 37.26 14.7811V3.98609C37.26 3.67704 37.517 3.41699 37.822 3.41699H42.6251C43.8942 3.41699 44.9224 3.79079 45.6932 4.52264Z" fill="#01C3C5"/>
<path fill-rule="evenodd" clip-rule="evenodd" d="M57.18 3.98609V5.15684C57.18 5.46554 56.9393 5.72559 56.634 5.72559H53.4694V14.7811C53.4694 15.0902 53.2121 15.3502 52.9071 15.3502H51.7026C51.381 15.3502 51.1399 15.0902 51.1399 14.7811V5.72559H47.9757C47.6706 5.72559 47.4137 5.46554 47.4137 5.15684V3.98609C47.4137 3.67704 47.6706 3.41699 47.9757 3.41699H56.634C56.9393 3.41699 57.18 3.67704 57.18 3.98609Z" fill="#01C3C5"/>
<path fill-rule="evenodd" clip-rule="evenodd" d="M80.0367 12.6839C79.7313 12.9114 79.2659 13.0255 78.6555 13.0255H75.1696V10.4404H78.5268C79.1853 10.4404 79.6836 10.5867 80.0204 10.8793C80.2936 11.1233 80.4223 11.4159 80.4223 11.8061C80.4223 12.1964 80.2936 12.4725 80.0367 12.6839ZM82.5425 10.6193C82.2856 9.98541 81.8841 9.48141 81.3218 9.12371C81.9162 8.53851 82.2212 7.74156 82.2212 6.75001C82.2212 5.80711 81.9 5.02661 81.3059 4.42496C80.5827 3.66091 79.5546 3.28711 78.2377 3.28711H73.4021C73.0974 3.28711 72.8401 3.54716 72.8401 3.85621V5.02661C72.8401 5.35176 73.0974 5.61181 73.4021 5.61181H78.3823C78.9124 5.61181 79.2977 5.72591 79.5546 6.01851C79.6514 6.11581 79.7313 6.22991 79.7797 6.37621C79.8278 6.52251 79.8596 6.70101 79.8596 6.91241C79.8596 7.10771 79.8278 7.28656 79.7476 7.44896C79.5868 7.75801 79.2659 8.16436 78.2377 8.16436H73.4021C73.1293 8.16436 72.8969 8.37296 72.8502 8.63756H72.8401V8.73346V9.85521V13.6107V14.6513V14.7815C72.8401 15.0902 73.0974 15.3502 73.4021 15.3502H78.5268C79.2015 15.3502 79.7957 15.269 80.3095 15.0902C81.9162 14.5697 82.7676 13.4805 82.7676 11.9034C82.7676 11.432 82.703 10.9931 82.5425 10.6193Z" fill="white"/>
<path fill-rule="evenodd" clip-rule="evenodd" d="M87.0581 8.78211H90.1906C91.1222 8.78211 91.7326 8.52206 92.0701 7.98551C92.1662 7.80666 92.2306 7.54661 92.2306 7.23791C92.2306 6.70136 92.0701 6.32756 91.7326 6.03461C91.3632 5.72591 90.8812 5.57961 90.2549 5.57961H87.0581V8.78211ZM94.6883 14.3422C94.8007 14.5214 94.8007 14.7486 94.7042 14.9278C94.6081 15.1066 94.4151 15.2204 94.2225 15.2204H92.7766C92.584 15.2204 92.4073 15.1227 92.3108 14.9603L89.9015 11.0746H87.0581V14.6516C87.0581 14.9603 86.8012 15.2204 86.4958 15.2204H85.291C84.9859 15.2204 84.729 14.9603 84.729 14.6516V3.85621C84.729 3.54716 84.9859 3.28711 85.291 3.28711H90.3991C91.6202 3.28711 92.6321 3.64481 93.3873 4.34376C94.1582 5.05916 94.5438 6.01851 94.5438 7.23791C94.5438 8.79856 93.8532 9.93641 92.5522 10.5055C92.4713 10.5542 92.3751 10.5867 92.2949 10.6196L94.6883 14.3422Z" fill="white"/>
<path fill-rule="evenodd" clip-rule="evenodd" d="M104.601 12.0826C105.26 11.3833 105.581 10.4894 105.581 9.38376C105.581 8.27846 105.26 7.40031 104.601 6.68491C103.926 5.96986 103.059 5.61216 101.935 5.61216C100.81 5.61216 99.9426 5.96986 99.2679 6.68491C98.6095 7.40031 98.2885 8.27846 98.2885 9.38376C98.2885 10.4894 98.6095 11.3833 99.2679 12.0826C99.9426 12.7977 100.81 13.1554 101.935 13.1554C103.059 13.1554 103.926 12.7977 104.601 12.0826ZM106.255 5.07526C107.348 6.22991 107.91 7.67681 107.91 9.38376C107.91 11.0907 107.348 12.5376 106.255 13.6919C105.131 14.8788 103.67 15.4804 101.935 15.4804C100.2 15.4804 98.7378 14.8788 97.6135 13.6919C96.5214 12.5376 95.9587 11.0907 95.9587 9.38376C95.9587 7.67681 96.5214 6.22991 97.6135 5.07526C98.7378 3.88876 100.2 3.28711 101.935 3.28711C103.67 3.28711 105.131 3.88876 106.255 5.07526Z" fill="white"/>
<path fill-rule="evenodd" clip-rule="evenodd" d="M124.859 3.51461C124.971 3.66091 125.003 3.85621 124.939 4.01861L121.63 14.8301C121.55 15.0576 121.341 15.22 121.084 15.22H119.718C119.478 15.22 119.253 15.0576 119.188 14.8301L116.827 7.43251L114.482 14.8301C114.402 15.0576 114.193 15.22 113.952 15.22H112.57C112.33 15.22 112.12 15.0576 112.04 14.8301L108.731 4.01861C108.667 3.85621 108.699 3.66091 108.812 3.51461C108.908 3.36831 109.084 3.28711 109.261 3.28711H110.53C110.771 3.28711 110.996 3.44951 111.06 3.69346L113.277 11.0256L115.606 3.67701C115.687 3.44951 115.896 3.28711 116.136 3.28711H117.534C117.775 3.28711 117.984 3.44951 118.064 3.67701L120.377 11.0256L122.594 3.69346C122.675 3.44951 122.883 3.28711 123.14 3.28711H124.409C124.586 3.28711 124.746 3.36831 124.859 3.51461Z" fill="white"/>
<path fill-rule="evenodd" clip-rule="evenodd" d="M135.623 11.8061C135.623 13.0091 135.157 13.9355 134.258 14.5858C133.423 15.1714 132.266 15.4804 130.836 15.4804C129.214 15.4804 127.945 15.1227 127.062 14.4073C126.242 13.7406 125.776 12.7977 125.664 11.6108C125.648 11.4484 125.696 11.286 125.809 11.1719C125.921 11.0582 126.066 10.9931 126.226 10.9931H127.479C127.784 10.9931 128.025 11.2206 128.041 11.5135C128.073 12.0662 128.314 12.4564 128.828 12.7651C129.31 13.0416 130.001 13.1879 130.852 13.1879C133.294 13.1879 133.294 12.2125 133.294 11.8548C133.294 11.5947 133.197 11.4323 132.989 11.286C132.684 11.0743 132.282 10.8954 131.8 10.7491C131.27 10.5867 130.692 10.4404 130.082 10.2941C129.423 10.1478 128.796 9.95286 128.234 9.72501C127.624 9.46496 127.094 9.13981 126.692 8.71701C126.226 8.24556 125.985 7.61171 125.985 6.84766C125.985 5.79066 126.387 4.91286 127.19 4.24611C127.961 3.61226 129.085 3.28711 130.563 3.28711C132.041 3.28711 133.214 3.64481 134.065 4.35986C134.853 5.01051 135.286 5.87186 135.334 6.91241C135.351 7.05871 135.286 7.22111 135.189 7.33521C135.077 7.43251 134.932 7.49761 134.788 7.49761H133.535C133.262 7.49761 133.021 7.28621 132.989 7.01006C132.941 6.58726 132.748 6.00206 131.688 5.70946C131.366 5.61181 130.949 5.56316 130.467 5.56316C129.985 5.56316 129.583 5.61181 129.278 5.72556C128.973 5.82321 128.748 5.93696 128.604 6.06716C128.475 6.18091 128.395 6.29466 128.363 6.40841C128.314 6.57116 128.282 6.75001 128.282 6.92851C128.282 6.96106 128.282 7.05871 128.427 7.20501C128.587 7.35131 128.796 7.49761 129.069 7.59526C129.391 7.74156 129.76 7.85531 130.178 7.95296C130.611 8.06671 131.061 8.18046 131.527 8.29456C131.993 8.40831 132.459 8.53851 132.908 8.68481C133.39 8.84721 133.84 9.05861 134.226 9.31866C135.126 9.90386 135.623 10.7656 135.623 11.8061Z" fill="white"/>
<path fill-rule="evenodd" clip-rule="evenodd" d="M146.452 3.85621V5.02696C146.452 5.33566 146.211 5.59571 145.889 5.59571H139.817V8.08316H145.182C145.504 8.08316 145.745 8.34321 145.745 8.65226V9.83911C145.745 10.1478 145.504 10.4079 145.182 10.4079H139.817V12.9118H145.889C146.211 12.9118 146.452 13.1718 146.452 13.4809V14.6513C146.452 14.9603 146.211 15.2204 145.889 15.2204H138.05C137.745 15.2204 137.488 14.9603 137.488 14.6513V3.85621C137.488 3.54716 137.745 3.28711 138.05 3.28711H145.889C146.211 3.28711 146.452 3.54716 146.452 3.85621Z" fill="white"/>
<path fill-rule="evenodd" clip-rule="evenodd" d="M150.726 8.78211H153.859C154.79 8.78211 155.401 8.52206 155.738 7.98551C155.834 7.80666 155.898 7.54661 155.898 7.23791C155.898 6.70136 155.738 6.32756 155.401 6.03461C155.031 5.72591 154.549 5.57961 153.923 5.57961H150.726V8.78211ZM158.356 14.3422C158.469 14.5214 158.469 14.7486 158.372 14.9278C158.276 15.1066 158.083 15.2204 157.89 15.2204H156.444C156.252 15.2204 156.075 15.1227 155.979 14.9603L153.569 11.0746H150.726V14.6516C150.726 14.9603 150.469 15.2204 150.164 15.2204H148.959C148.654 15.2204 148.397 14.9603 148.397 14.6516V3.85621C148.397 3.54716 148.654 3.28711 148.959 3.28711H154.067C155.288 3.28711 156.3 3.64481 157.055 4.34376C157.826 5.05916 158.212 6.01851 158.212 7.23791C158.212 8.79856 157.521 9.93641 156.22 10.5055C156.139 10.5542 156.043 10.5867 155.963 10.6196L158.356 14.3422Z" fill="white"/>
<path fill-rule="evenodd" clip-rule="evenodd" d="M7.53027 0.900391C7.14848 0.900391 6.83862 1.20038 6.83862 1.57001V4.58327C6.83862 4.9529 7.14848 5.25289 7.53027 5.25289C7.91205 5.25289 8.22191 4.9529 8.22191 4.58327V1.57001C8.22191 1.20038 7.91205 0.900391 7.53027 0.900391Z" fill="#01C3C5"/>
<path fill-rule="evenodd" clip-rule="evenodd" d="M5.10955 0.900391C4.72776 0.900391 4.41791 1.2245 4.41791 1.62385V4.87942C4.41791 5.27877 4.72776 5.60289 5.10955 5.60289C5.49134 5.60289 5.80119 5.27877 5.80119 4.87942V1.62385C5.80119 1.2245 5.49134 0.900391 5.10955 0.900391Z" fill="#01C3C5"/>
<path fill-rule="evenodd" clip-rule="evenodd" d="M7.55966 13.1504H7.50087C7.13499 13.1504 6.83862 13.4776 6.83862 13.8816V16.6192C6.83862 17.0232 7.13499 17.3504 7.50087 17.3504H7.55966C7.92554 17.3504 8.22191 17.0232 8.22191 16.6192V13.8816C8.22191 13.4776 7.92554 13.1504 7.55966 13.1504Z" fill="#01C3C5"/>
<path fill-rule="evenodd" clip-rule="evenodd" d="M5.10955 13.1504C4.72776 13.1504 4.41791 13.464 4.41791 13.8504V16.6504C4.41791 17.0368 4.72776 17.3504 5.10955 17.3504C5.49134 17.3504 5.80119 17.0368 5.80119 16.6504V13.8504C5.80119 13.464 5.49134 13.1504 5.10955 13.1504Z" fill="#01C3C5"/>
<path fill-rule="evenodd" clip-rule="evenodd" d="M77.3862 0.900391C77.0044 0.900391 76.6946 1.21399 76.6946 1.60039V4.05039C76.6946 4.43679 77.0044 4.75039 77.3862 4.75039C77.768 4.75039 78.0779 4.43679 78.0779 4.05039V1.60039C78.0779 1.21399 77.768 0.900391 77.3862 0.900391Z" fill="white"/>
<path fill-rule="evenodd" clip-rule="evenodd" d="M77.3862 13.5C77.0044 13.5 76.6946 13.8136 76.6946 14.2V16.65C76.6946 17.0364 77.0044 17.35 77.3862 17.35C77.768 17.35 78.0779 17.0364 78.0779 16.65V14.2C78.0779 13.8136 77.768 13.5 77.3862 13.5Z" fill="white"/>
</svg>
