<svg width="160" height="38" viewBox="0 0 160 38" fill="none" xmlns="http://www.w3.org/2000/svg">
<path fill-rule="evenodd" clip-rule="evenodd" d="M7.64592 9.40779L5.2644 18.1392V22.0745L6.1418 26.1327L6.76852 28.2848L9.90209 29.822L16.5452 30.5599C16.5452 30.5599 22.9377 26.9936 23.1884 26.8706C23.3764 26.7476 29.5182 21.767 29.5182 21.767L31.085 17.3398V11.6829L28.9542 8.48546L26.6353 6.94824H14.7905L7.64592 9.40779Z" fill="white"/>
<path fill-rule="evenodd" clip-rule="evenodd" d="M18.5507 3.44336C27.3247 3.44336 34.4066 10.3916 34.4066 19C34.4066 27.6084 27.3247 34.5566 18.5507 34.5566C9.77675 34.5566 2.69489 27.6084 2.69489 19C2.69489 10.3916 9.83942 3.44336 18.5507 3.44336ZM19.4281 11.3754H18.1747V12.6052H16.9213V23.6731H18.1747V24.9029H19.4281V23.6731H20.6816V12.6052H19.4281V11.3754ZM21.747 17.5243H21.3083V18.754H23.1884V21.2136H23.8151V18.754H25.0686V17.5243H23.1884V15.0647H23.8151V17.5243H21.747ZM25.946 10.1456H25.6953V21.2136H26.9487V22.4434H27.5754V21.2136H28.8288V10.1456H27.5754V8.91585H26.9487V10.1456H25.946ZM8.14729 16.9094V27.9773H9.40072V29.2071H10.0274V27.9773H11.2809V16.9094H10.0274V15.6796H9.40072V16.9094H8.14729ZM12.785 24.288H12.5343V27.3625H13.7877V28.5922H14.4144V27.3625H15.6679V24.288H14.4144V23.0582H13.7877V24.288H12.785Z" fill="#1274D9"/>
<path fill-rule="evenodd" clip-rule="evenodd" d="M40.8617 24.411C40.8617 25.3948 41.3004 25.8253 42.3031 25.8253H48.7583C49.761 25.8253 50.1997 25.3948 50.1997 24.411V21.767H47.0662V22.5049C47.0662 22.7508 46.9408 22.9353 46.6275 22.9353H44.81C44.5593 22.9353 44.3713 22.8123 44.3713 22.5049V13.5275C44.3713 12.5437 43.9326 12.1133 42.9299 12.1133H39.6083V15.0032H40.423C40.6737 15.0032 40.8617 15.1262 40.8617 15.4337V24.411ZM52.2052 14.8188H55.0254V12.1133H52.2052V14.8188ZM51.9545 24.411C51.9545 25.3948 52.3932 25.8253 53.396 25.8253H56.5295V22.9968H55.7775C55.5268 22.9968 55.3388 22.8738 55.3388 22.5664V17.3398C55.3388 16.356 54.9001 15.9256 53.8973 15.9256H50.7638V18.6926H51.5158C51.7665 18.6926 51.9545 18.8155 51.9545 19.123V24.411ZM57.3443 24.2266C57.3443 24.2266 58.9111 26.0097 61.7939 26.0097C64.6768 26.0097 65.9302 24.7799 65.9302 22.8123C65.9302 19.4919 60.8539 19.6149 60.8539 18.6311C60.8539 17.6473 61.2926 18.2007 61.7313 18.2007C62.17 18.2007 62.6713 18.3851 62.6713 18.6311V19.123H65.6169V17.9547C65.6169 16.1715 63.3607 15.7411 61.7313 15.7411C60.1018 15.7411 57.595 16.6634 57.595 18.7541C57.595 21.9515 62.6087 22.1974 62.6087 23.0583C62.6087 23.9191 62.358 23.5502 61.8566 23.5502C60.2898 23.5502 58.9111 22.1359 58.9111 22.1359L57.3443 24.2266ZM67.9984 22.1359C67.9984 25.4563 71.0693 25.8867 72.6988 25.8867C74.3282 25.8867 73.6388 25.8867 73.6388 25.8867V22.9968H73.2001C72.5734 22.9968 71.3827 22.8738 71.3827 21.7055V18.5081H73.5135V15.9256H71.3827V13.2816H68.1237V15.9256H66.745V18.5081H68.0611V22.1974H67.9984V22.1359ZM76.083 14.8188H78.9032V12.1133H76.083V14.8188ZM75.8323 24.411C75.8323 25.3948 76.271 25.8253 77.2738 25.8253H80.4073V22.9968H79.5926C79.3419 22.9968 79.1539 22.8738 79.1539 22.5664V17.3398C79.1539 16.356 78.7152 15.9256 77.7125 15.9256H74.5789V18.6926H75.331C75.5816 18.6926 75.7697 18.8155 75.7697 19.123V24.411H75.8323ZM82.3501 25.7638H85.7344V21.3981C85.7344 20.9062 85.7971 20.4757 85.9224 20.1068C86.2358 19.246 86.8625 18.6926 87.9279 18.6926C88.9933 18.6926 89.056 19.0615 89.056 19.9838V24.3495C89.056 25.3333 89.4947 25.7638 90.4974 25.7638H93.631V22.9968H92.8789C92.6282 22.9968 92.4402 22.8738 92.4402 22.5664V19.3689C92.4402 16.602 90.8735 15.6796 88.8053 15.6796C86.7371 15.6796 86.1104 16.602 85.6091 17.4013H85.5464V17.0324C85.5464 16.356 85.045 15.9256 84.1676 15.9256H81.1594V18.6926H81.9114C82.1621 18.6926 82.3501 18.8155 82.3501 19.123V25.7638ZM94.3204 20.5372C94.3204 23.0583 95.8245 25.5178 98.8327 25.5178C101.841 25.5178 100.776 25.2104 101.34 24.5955H101.402V25.0874C101.402 26.5631 100.274 26.9935 99.0834 26.9935C97.8927 26.9935 96.2632 26.3787 96.2632 26.3787L95.2604 28.9612C96.2632 29.4531 97.7046 29.822 99.0834 29.822C101.841 29.822 104.724 28.5308 104.724 24.9029V19.123C104.724 18.877 104.912 18.7541 105.163 18.7541H105.852V15.9871H102.781C102.029 15.9871 101.716 16.479 101.716 16.7864H101.653C101.653 16.7864 100.776 15.6181 98.77 15.6181C95.8245 15.6796 94.3204 18.0162 94.3204 20.4757M99.6474 22.7508C98.3313 22.7508 97.7046 21.644 97.7046 20.4143C97.7046 19.1845 98.3313 18.4466 99.5221 18.4466C100.713 18.4466 101.465 18.8155 101.465 20.5987C101.465 22.3819 100.525 22.7508 99.6474 22.7508ZM107.669 25.7638H110.74V22.6278H107.669V25.7638ZM113.623 25.7638H117.133V20.4143H121.833V25.7638H125.343V15.4337C125.343 15.1877 125.468 15.0032 125.781 15.0032H126.596V12.1133H123.275C122.272 12.1133 121.833 12.5437 121.833 13.5275V17.5858H117.133V13.5275C117.133 12.5437 116.694 12.1133 115.691 12.1133H112.37V15.0032H113.184C113.435 15.0032 113.623 15.1262 113.623 15.4337V25.7638ZM127.474 20.8447C127.474 23.4887 129.416 26.0097 132.989 26.0097C136.561 26.0097 137.25 24.4725 137.25 24.4725L135.934 22.2589C135.934 22.2589 134.681 23.3042 133.239 23.3042C131.798 23.3042 131.171 22.7508 130.92 21.521H137.25C137.25 21.521 137.313 20.8447 137.313 20.5372C137.313 17.8317 135.621 15.8026 132.675 15.8026C129.479 15.7411 127.474 17.9547 127.474 20.8447ZM131.046 19.4304C131.234 18.6926 131.735 18.1392 132.738 18.1392C133.741 18.1392 133.929 18.8155 133.929 19.4304H131.046ZM139.444 24.411C139.444 25.3948 139.882 25.8253 140.885 25.8253H144.019V22.9968H143.267C143.016 22.9968 142.828 22.8738 142.828 22.5664V13.5275C142.828 12.5437 142.389 12.1133 141.387 12.1133H138.253V14.8803H139.005C139.256 14.8803 139.444 15.0032 139.444 15.3107V24.411ZM145.962 29.6376H149.346V26.0712C149.346 25.5793 149.283 25.2104 149.283 25.2104H149.346C149.346 25.2104 150.286 26.0712 151.915 26.0712C154.61 26.0712 156.616 24.0421 156.616 20.9062C156.616 17.7702 154.798 15.7411 152.103 15.7411C149.409 15.7411 149.095 17.0324 149.095 17.0324H149.032V16.8479C149.032 16.4175 148.719 15.9871 147.716 15.9871H144.771V18.6926H145.523C145.774 18.6926 145.962 18.8155 145.962 19.123V29.6376ZM149.22 20.9062C149.22 19.1845 150.161 18.5081 151.163 18.5081C152.166 18.5081 153.106 19.4919 153.106 20.9062C153.106 22.3204 152.166 23.2427 151.163 23.2427C149.847 23.3042 149.22 22.1359 149.22 20.9062Z" fill="white"/>
</svg>
